<svg version="1.1" id="Capa_1" xmlns="http://www.w3.org/2000/svg" x="0" y="0" viewBox="0 0 1190.6 841.9" xml:space="preserve"><style>.st0{fill:#fff}</style><path class="st0" d="M9.9 387.9h1170.5v68.7H9.9zm1172.9 65.8c0 3.7.4 2.3.5 2.9-.1-6.1-.6-2.8-.5-2.9z"/><path class="st0" d="M1181.9 393.3l.1 1.1-.1-3.5-.2-4.4-3.3.1 3.3-.1zm-52.6-6.9c5.3.7 20.5-.1 30.5.1l1.7.2 4.5-.6c-12.2.1-28.1.5-36.7.3zm-30.1-1.6c1.9.3-6.5.2 7 .1-.7 0-.9 0-1.3-.1h-5.7zm5.8 0c5.9 0-3.9-.2 0 0zm-27.5.2l7.8-.2c-1.6-.2-8.6-.2-6-.3-8 .1-6.4.2-1.8.5zm-7.4.5l4.1-.1c-.8-.1-1.9-.1-4.1.1z"/><path class="st0" d="M1082.7 385.2l-8.6.2c1.1.1 1.3.3 4-.1-.7.2 1 0 4.6-.1zm4.9.1c4.4.2 10.1.3 2.2.5 15-.1 12.8-.6-2.2-.5zm38.9 1.8l5.9.2 5.1-.2c-2.6.1-11.4-.2-11 0zm-97.8-2.5c-.5.2 2.6.4 3.2.6l5.8-.2c-3-.1-8.6-.2-9-.4z"/><path class="st0" d="M1031.9 385.2l-8.7.3c7.8 0 9.2-.1 8.7-.3zm36.8 1.1l14.2-.5-17 .5zm-73.1-1.7l4.9-.3-8.7.5zm-21.9.1c3.6-.3-5-.5-1.1-.7-6 .1-11 .3-15.6.5 4.8-.1 10-.1 16.7.2zm-24.5.1c2.4-.1 5-.2 7.7-.3-2.6.1-5.1.2-7.7.3zm59.3.6c-.7-.1-2-.3-6.8-.4l3.4.4h3.4zm-3.3 0h-7.5 7.5zm4.2 0h-.9c.3.1.5.1.9 0zm36.6.5c-5.1.2-15.7.5-5.4.9 3.6-.3-2.3-.5 5.4-.9zm-32.4 0l9.2.1c-.2-.1-1.8-.3.7-.4l-9.9.3zm-4.5.2l4.5-.2h-3.4zm-44.1-.9c-4 .2-8.3.2-13.2.2 5.3.1 10.7.1 15.9.1.6 0 2.9-.3-2.7-.3zm19.5.2h-.9.9zm-81.1.1c.3 0 .5.1.8.1.1 0 .1 0 .2-.1h-1zm65.1.2c4 .1 6.3 0 8.6-.2-3 0-6.1.1-9.5.1-.3.1-.4.1.9.1zm-32.8-.7c2.1.1 4.4.2 6.8.2-1.9-.1-6-.3-6.8-.2zm46.6.3h.6c-1.3-.1-1.1-.1-.6 0zm0 0c-2 .1-3.6.2-5.2.3 2.4 0 4.6-.1 6.6-.1-.5-.1-1-.2-1.4-.2z"/><path class="st0" d="M888.8 388.2c.7-.4 11.1-.8 20.1-.3 8.8-.3 3.1-1.6-4.7-2.3-.3.2-.3.3-9.4.6 3.2.2 20.2.5 12.5.9-12 .2-9.9-.1-15.7-.3 5 .5-15.3.7-12.7 1.4l10.6-.3c.2 0-3.7.2-.7.3zm32.7-2.6h3.7c-4.3-.1-7.3-.2-12.9-.5-6.2.2-7.5.3-7.9.5l18.4.1-1.3-.1zm20.5-.1c-2.9.4-11.9.6-6.4 1.1 11 0 7.7-.4 14.2-.5-17.7.1 5.1-.2-7.7-.5 3.5-.1 6.6-.1 9.6-.1-3.2-.1-6.3-.1-9.2-.2h.5c.8.1 1 .1.2.1h-.4c-.1 0-.4.1-.8.1-5.1-.1-.8-.1.8-.2.1 0 .2 0 .2-.1h-.1l-17.7.2c3.8.2 8.5.2 16.8.1zm89.1 2.2c-.6 0-.5-.1-.6-.1-1.1.1-1.6.1.6.1zm-7.3-.3c1.3-.1 2.4-.2 6.6-.2 3.6.1 0 .2.2.3 2.5-.1 8.8-.3.9-.5l-1.3.1c-7.1-.1-16.3-.7-15.1-.7 2.1.4 3.9.7 8.7 1zm-41.4-.8l-14.8.2 7.5.4-.4-.2c8.5.1 6.7-.2 7.7-.4zm-80.7-1.3l2-.5-8.5.7zm-19.2 0l.7-.4-5 .3zm-730.4 68.9l4.3-.1c-2 0-3.3.1-4.3.1zm-31.4 0l-.8.2c1.4-.1 2-.2.8-.2zM411 385.4c-6.3-.4-13.4-.9-12.6-.5l1.9.4c4.4-.1 7.8 0 10.7.1zM88 388c.6 0 1.2.1 1.8.1 1.5-.1 3-.3 4.3-.4-1.8.1-3.9.2-6.1.3zm-4.4 1.7l-8.3-.3c1.8.2 4.5.3 8.3.3zm240.1 64l5.1-.4c-7.9 0-4.4.2-5.1.4zm362.2-68.2c-5.5-.2-9.8-.2-13.6-.3 6.5.3 11.8.6 13.6.3zm-546.2 73.3c2.7-.1 3.8-.2 3.7-.3-2.7.1-4.2.2-3.7.3zm516.8-73.6c1 0 1.9.1 2.9.1 4-.1 8-.1 12.9-.1-4.9-.2-10.4-.3-15.8 0zm289.8 68.9c.5 0 1 0 1.4.1.1-.1-.5-.1-1.4-.1zm181.4 4.4h-7.4 7.4zm-322.4-73.4c4 0 .6 0 0 0zm19.8 1.7c-.9 0-1.5.1-1.6.2.3 0 .9-.1 1.6-.2zm-209.2 1.1h-.4c1.3.1 1.1.1.4 0zm195.5-2.6c-1.5-.1-3.3-.1-5.2-.1.8 0 2.4.1 5.2.1zm-.8-.2h3.6c.5 0 0-.1-3.6 0zm-11 .1h6.6c-.8 0-1.1-.1-.9-.1-1.2 0-2.9 0-5.7.1zm-186.9 70.1h.9c4.1-.2 2.3-.1-.9 0zM305 389.9h.5-.6.1zm-14.6.3c6.2-.5 9.8-.5 14.5-.4l-4.8-1.3-9.7 1.7z"/><path class="st0" d="M227.3 454.1l-10.3-.4c12.4-.6 21.4-.4 11.7-1-1.5 1.4-39.9.1-41.4 1.5l-6.8-.3c1.9 0 2.3-.1 4.2-.1-13.2-.7-9.8 1-26.7.8-5.9-.1-10-.3-6-.5l-13.2.3c-3.8 0-2.9-.3.9-.2l-20.1.1h.1c-2.9.2-9.4.5-12.5.7-5.1-.2 2.6-.1 1.3-.3l-11.1.3c-4.5-.4 4.7-.7 12.4-.6-10.4-1.4-9.2.3-31.7-.5l10.5-.2c-6.8-.8-15-.5-26.9-1 2.8.3 23.8 1.2 11.7 1.5-3.4-.1-7.9-.2-14.4.1-.1-.5-6.4-.4-14.4-.3l.5-.6c-8.6.2-7.9.5-13 .8-9.6-.1-11.6-.6-13.8-1h-4c-.9 0-.7 0-.8.1v.1h.4c.5 0 1 .1 1.6.2 1.1.1 2.2.2 1.8.3-.2 0-.7.1-1.8.1-.7 0-1.7 0-3.2.1h-.4v-6.4c0-2.8 0-5.5-.1-8.3-.1-5.6-.2-11.6-.4-19 .2-8.9.4 1.6.6-1.6l-.5-7.9c0-1.9.2-1.3.2-1-.2-6.7-.6-.6-.8-11-.2-.6-.2-2-.2-3.9 0-1 .1-2.1.1-3.3 0-.7.1-1.6.1-2.4.6 0 1.1.1 1.7.1H15c2 .1 4 .1 6 .2 4.1.1 8.2 0 11.8-.2 3.2.2-1.5.4-.6.6 17.8-.5 15.3-.4 29.9-1.1l12.5.4c-9.2-.5 2.5-1 12.8-1.5-3.3-.2-6-.4-7.9-.5l16.4-.3c2 .1.3.3-2.4.6 1.1-.1 2.2-.1 3-.2 5.9.2 2.8.6-1.4 1-2-.1-4-.3-5.9-.4-4 .4-7.8.8-7 1.2 1.1-.1 3.1-.1 5.4-.2-1.1.1-1.7.2-1.2.3.6.1 2.3-.1 4.9-.2l3.7.7.9-.3 22.1.5c15.3-.7 28.6-1.8 53-2.1-6 .5-1.3.9-1.6 1.5-6.6-.7-18.8.3-31.4.1 6.6.1 5.1.4 3.5.5l22.5-.6c-.5.5 4.8.4 10.6.6-4.4-1 16.8-.7 25.9-1 .6.3-1.6.7-12.8.6 12.3.8 15.9-1.2 28-.5-2.7 0-4.2 0-5.3.1 6.4-.3 21.9-.1 18.3.2H226c18.1.1 55 0 57.7-.8.2.1-2.4 1-3.5 1.2l32.3-2.9c-2.8.7 8.1 2.5-6.9 2.9 4.3.1 9.6.2 18.7 0-2.9-.1-7.3-1.1-3.3-1.1 11 .8 7.6.4 21.2 1.1-4.4-.2.5-1.3 7.4-1.3-1.1.2.6 1.1-2 1.2l17.3-1.1c-4.3.2-.8 1 3.1 1.3-1.8-.2 15 0 19.6-.1l-7.3-.3c19.6.2 19.3-1.6 38.7-1.5-2.3.2-5.8 1.4 4.1 1.6 4.5-.6 20-2.8 37.2-3.2l3.3.3 13.2-.4c-8.2.9-31.2 2.7-43.8 3.4 7.3.3 2 .4 13 .4 3.9.3-6 .5-9.2.5l25.5.2c-1.1-.7 19.5-.7 18.5-1.2l-27.7.7c-1.1-.7 16-1.9 34.1-1.8 4.6.3-3.4 1.2-3.1 1.4 2.3-.2 17.2-.4 18.8-.3l-7.7.4c10.1.3 16.4-.9 28.5-.2 4.2 0 12.5.9 13.2.5-6.8-.8-8.1-3.1-3.6-3.7 1.5.1 21.9.7 26.7 1.1 6.9.6-10.3 1.4-4.5 2 .3-.2 4-.4 5.6-.5 4.4.2-1.8.6 7.7.5 1.6-.7 19.4.1 4.5-.6 9.3-.2 9.9.1 20.8.1-3.5-.4 9.8-1.5 19.2-1.7-.6.2 1.5.4 2.6.5 19.1.1 29.4.4 47.2.4 1.6.2 10.2.4 6.6.7 2.6-.1 4.9-.4 10.4-.4 10.6.6-12.2.1-4.1.8.7-.4 14.2-.5 22-.8-2.4-.6-18.1-.1-25.9.1 0-.8 13.6-1.7 32.2-2.1 14.8-.2 6.4.5 9 .4 27.8.1 23.7-1.5 46.7-.9 9.2.5.4 1.1 2.4 1.5-12.1.2-18.5-.3-26.7-.3l10.1.3c-3.8.2-11.9.3-16.3.2 7.7.5 46.9.1 68.4.5 3.8-.2 10.4-.4 7.3-.6l-6.8.1c-6.2-.4 12.8-.6 4.2-.8 9.1-.3 19.3-.8 32.1-.5l2.4.6c-.3-.2-8.4-.4-12-.2 5.3-.3 19.6.8 25.5 0l-9-.4c9.1-.3 20.4-1 31.8-.8-5.2-.6-2.6.1-10.7-.6 7 .9-29 0-17.8.9-8.3-.8-14.3-.3-25.1-1 .3.2 3.8.4-5.7.3-.4.1-1.4.1-2.1.2h-.6.7c2.3.1 4.1.2 4.9.3-4.7.5-19.9.4-25 .7-5.7-.1 2.4-.2-.7-.4l-7.7.4c-.8-.4-15-.7-1.7-1h-12c-7.1-.3-16.8-.4-22.8-.2-5.7-.1-14.3.5-9.4.1l-18.8.3-.2-.1c-18.6-.1-38.2.7-59.4-.1-6.2.1-12.7.3-23.2.1l-2-.4c-8 .1-24.1-.4-27.5 0-8.7-1-38.9-.2-53-.4l-.5.5c-9.7 0-19 .1-31.1.3l.7.4c-10.4.4-26.7-.3-43.1-.3 1.1-.2 5.3-.1 8.2 0-19.6-1-41.4.7-59.2 0-4.4.2-7.7.1-10.8 0h1.1-1.8c-2-.1-4-.2-6.2-.2 1.9.1 3.6.2 5.2.2-3.4 0-8.6.1-13.7.2l-2.2-.5H399c-5-.2-4 .2-1.4.6-2.6.1-4.9.2-6.7.3-4.1-.8-13.3.3-18.9-.6-3.4.4-25.6.3-28.3 1.2-.2-.1-1.7-.2 1.1-.2-5.7-.1-11.3-.2-16.4 0l-2.4-.6-12.4.8c-7.5-.4-10.6-.6-3.2-1.1-18 .7-14.6.3-30 1l.7-.4c-5.5 0-14.3.5-17.6.2-12.3-.8-60.7-.1-92.2-.8 6.1 1.2-14.6-.5-15.9.4-1.8-.3-6.2-.4-1.1-.7-16.1.3-24.1-.4-35.2.3-1.8-.3 3.4-.4 1.8-.6-1.3.1-5.1.2-6.8.1-1.6-.2 2.4-.2 4.9-.4-16.4 0-18.1.9-19.3 1.7-8.3-.4-12.5-.3-18.5.2-2.9-.3-7.7-.5 2.5-.6-5.7 0-35.1-.4-35.6.3-1.8-.2-8 0-9.5 0-6.4 0-9.9 0-13.4-.1H11.4l4.1.1c-1.6.3-4.1.4-6.5.4v3.7c0 1.1 0 2.3-.1 3.6 0 2.5-.1 5.3-.1 8.5l-.1-.3c-.6 23.4.3 10.1-.4 33.1l.5-1.3c.4.8.4 3.7.3 7.7-.1 2-.1 4.3-.2 6.7 0 1.2-.1 2.5-.1 3.8 0 1.6-.1 3.3-.1 5 5.6.1 9 .1 12.8 0l-4.8-.3c7.3-.4 20.4 1.4 27.8 1.5 1.6.1-2.5.1-4.8.2 19.2.6 2.5-.6 16.8-.8 2.6.3-3.4.9 6.2.9 4.8.3 28-1.1 41.1-.5-2.9-.3-5.8-.5.9-.7 10.2-.1 27.6 1 36.8.2 1.3.1 1.8.1 1.8.2 7.8-.2 25.3-.4 30-.8 7.2 1.7 48.5-.8 48.3.7l24-.1-.6.2c15.3.1 20.7-.3 26.1-.6 3.5.1 1 .2.7.3 22.4.3 24.6.2 43.4-.5l2 .5c5.1-.3 32.4.8 54.3.2-.2.1-.7.2-2.4.2 24.7-.6 59.1 1.4 68.2-.4l16.3-.4c-21.1-.1 3.1-.8-5.5-1.1 8.3-.1 21.4.5 11.3.6l-1.6-.1c-3.7.9 26.2.3 25.6 1 41.5 0 82 .5 120.8.5l-4.5-.7h13.6c3.6.2 4.8.6-4.9.5 2.5.2 6.6.1 10.1 0 3.5-.2 6.3-.4 6.4-.5 18.9.3-7.4.9-1.6.9l7.9-.1-1.8-.1c6.4-.3 7-.6 18.6-.6 7.4.1 3.8.5 6.7.5 0 0 .2 0 .9.1h3.5l17.1.1-6.8-.6c7.6-.3 16.1 0 8.2-.6 11.6 1 63.7.4 70.8.7 10.6-.4 21.1-.4 34-.4-3.2-.1-5.2-.8 6-.7-4.1 1.3 20.5.6 29.5 1.5-8.1-.6 31.8-.2 19.1-1.1 9.3.1.6.5 7.6.8 22.2-.5 49 .3 76.4.2.4-.2-4.2-.4 1.7-.7l14.5.9c5.4-.1 5-1 14.9-.4-1.4-.1-3.5-.4.1-.4 53.8.9 109.9-.7 164.6.9-7.4-.3-2.5-.4 3.2-.4-3.7-.1.1-.4-.6-.7l22.9.7c4.2-.7 24.5 0 26.9-.7l-7.2.1c9.6-.7-13.5-1.7-12.1-2.6-10.8.8-28.4-1.3-46.1 0-3.9-.2 3.3-.3 1.2-.5-4.5.4-9.9.5-19.9.3l1.1-.1c-28.2.1-40.3-.3-72-.6l2.3.5c-6.8-.1-8.2-.2-11.4-.3-7.8.7 19.1 0 12 .8-9-1-48 0-54.1-1.1-10.5 0 3.1.5-7.4.5l-2.8-.3-2.6.4c-6.9-.1-10.3-.4-10.6-.7 1.7 0 4.7-.1 6.5-.1-8.9-.3-25.1.1-28.2 0l10.1.2c-28.6.3-63.5-.1-91.1.5l2.1.2c-21.1.4-16.9-.2-40-.1l.8-.1c-4.6.2-10.8.3-17.2.3 5.8-.3-11-.5-3.3-.8-22.9.4-11.3.3-26.4 1.2l-3.5-.4c-5.1.3-5.6.5-17.1.6 9.5-.3-7.4-.6 3.2-1-24.3-.8-36 .8-47.2-.4-11.1 1 21 .6 14.8.8 5.2.3-9.2.8-16.8.7-7.8 0-13.2-1.3-32.7-1.3 1.9 0 2.1-.1 4-.1-7.3-.3-14.3.4-23.2-.1-5 .6-11.6 0-13.1.8l17.9-.2c-10.1.2-19.6 1.1-36.4.7 1.3-.2 6.3-.4 9.7-.5-4.9-.2-9.4.2-14.5-.1 1.4-.8 21.7-.2 32.6-.8-5.2-.3-20.5.6-15.1-.3-7.8 1.1-19.2-.1-32.4.7l.9-.5c-2.1.1-6.4.3-10.3.3l7-.6c-10.7.5-20.6-.5-30.9-.2 21.5 0 4.8.6 13.9.9-26.5.6-15.2-1.2-44.9-1 4-.1 15.1.3 8.8.5-5.6-.1-13.1-.3-16.6-.5-19.6.1 3 .5-5.3.8-6.7-.6-9.6.2-18.3.4l-.1-.5c-22.4-.3-5.9 1-26.1.6l8.5-.7-10.5.2 2.2-.5c-11.4.4-15 .3-26.2.1 2.6.3-1.5.9-11.4.9-6.8-.3 3.8-.5-10.3-.4 3.2-.3 6.6-.7 12.8-.2.6-.2 3.1-.3 3.8-.5-7.3-.3-18.3-.1-23.4-.1 2 0 4.3 0 5.5.1l-20.4.7c-3.2-.2-.7-.3 1.9-.5-4.1.1-7 .3-13 .3 1.6-.4 1.2-.8 9.8-1l-19.4.4c-1.3-.2-10-.5-7.4-.6-10.8-.2-26.4.8-40.7.5-.7.1-2.2.1-5.3.2-13.4-.1-25.3-.6-41.2 0l-9-.7c-12.4.2 12.2.9-8.5 1.2-14.7.2-5.5-.6-10.6-.8-7.3.4-20 1.1-33.5.5 4.8.4 8.3.5 12.4.5zm-153.5.3c3-.1 8.9-.4 11.1-.1-3.4.5-6 .2-11.1.1zm36.8-65.5c-2.2.2-5.6.1-9.5-.1 2.8-.1 6 0 9.5.1zm650-3.4h-.3c-6.6-.1-4.3-.1.3 0zm13.8.2c1.4-.1 1.3-.1.7-.2-1 .1-4.1.1-7.6.1 1 .2 2.8.2 6.9.1zm-118.2 72.8l-2.7-.1c6.1-.2 4.4 0 2.7.1z"/><path class="st0" d="M84.2 389.5c-.8-.1-1.1-.2-1.3-.3-1.2.2-1.2.3 1.3.3zm238.6 64.3h.5c.3 0 .4-.1.5-.1l-1 .1zm238.2-64c-2.8-.1-4.4-.2-5.5-.2-.1.1 1.2.2 5.5.2zm286.4-4.9l-8.8.1c4.3 0 5.8.1 7.9.2-.2-.1-1.8-.3.9-.3zm76.6 3c1.3-.1 2.7 0 4-.1l-.4-.2c-5.4 0-9.3.2-3.6.3zm-68.4-1.4c.7.4 6.2.3 12.4.2h-1.1c1.8-.6-4.7-.4-11.3-.2zm13.8.2h5.7c.8-.2-2.3-.1-5.7 0zm-77.5-1.2c2.9.1 1.8-.5 3.5-.4 3.3-.5-19.6.6-3.5.4zm68.7 2.4l-2.2-.5-3.5.4zm-48.8-.4l9.9.1c-.1-.1 1.1-.1 2.6-.2-6.1 0-12.7-.1-12.5.1zm12.5 0c3.2 0 6.2 0 7.9-.1-1.7 0-5.3 0-7.9.1zm22.8.5l-2.9-.1h-7zm-141.5-.6l-10.8.1c-1.1.2 1.8.3 5.9.2 2.6-.1 6.6-.1 4.9-.3zm32.6 1.4c-2.9-.1-3.1-.2-4.8-.4l-.3.6 5.1-.2zm-31.4.1c-1.1.2-15.6.5-2 .5 1.1-.2 11.9-.4 2-.5zm-162.5-.8h2.8l-.4-1zm-143.1 2.5c12.8.2 3-.6 14.6-.3 3-.2-9.4-.2-6.4-.5-7.7.2-11.8.1-8.2.8zm8.2-.8c1.2 0 2.5-.1 3.9-.2-2.2.1-3.3.1-3.9.2zm748.4 69.2l8.2.2-5.3-.3zm15.7-.7l1.9.6 4.9-.6c-1.8.1-5.4.1-6.8 0zM51 453.1l-.6.2c1.3.2 3.2.2 7 .2l-6.4-.4zm111.4.5h-1.9l3.6.5zm93.5-.8c-3.8 0-8.3.1-12.1.1 8.3-.1 13.2.7 12.1-.1z"/></svg>