<svg version="1.1" id="Capa_1" xmlns="http://www.w3.org/2000/svg" x="0" y="0" viewBox="0 0 190 60" xml:space="preserve"><style>.st0{fill:#313134}</style><path class="st0" d="M151 38.2s-.1 1.2.6 1.4 7.1-.8 11.9-1.2c5-.5 9.4 0 10.6.8.6.4.3 1 .5.9.3-.1.3-1.1-.1-1.4-.6-.5-1.9-2-10.6-1.2 0 0-10.6 1.2-12.2 1.4-.6-.1-.4-1.2-.7-.7zM19.8 20.1c-1.3.2-2.5.5-3.7.7-.7.1-1.5.2-2.2.4-.3 0-.6.1-1 .1-.3 0-.6.1-.9.1-.2 0-.3-.1-.4-.3.1-.1.2-.2.4-.2.5-.1.9-.2 1.3-.3 1-.2 2-.5 3-.7 1.5-.4 3-.8 4.5-1.1.9-.2 1.8-.4 2.7-.5l1.8-.3c1.2-.1 2.3-.2 3.4-.2h2.8c1.1.1 2.1.3 3.1.7.4.1.7.3 1 .5.4.3.7.7.8 1.2 0 .2-.1.4-.3.5-.1-.1-.1-.3-.1-.4v-.4c-.2-.2-.6-.3-.9-.4-.6-.2-1.2-.3-1.9-.4-1.1-.1-2.1-.1-3.2-.1h-1.2c-.9 0-1.8.1-2.7.2-.8.1-1.6.1-2.4.2-.1 0-.2.1-.3.1-.1.4-.2.7-.2 1-.2 1.1-.3 2.1-.5 3.2-.1.8-.3 1.7-.4 2.5-.1.5-.1 1-.2 1.5-.1.9-.3 1.8-.5 2.6l-.3 2.1c0 .2 0 .5-.1.8-.1 1-.2 2-.1 3V39c0 .5.1.9.2 1.4-.3-.2-.5-.4-.7-.6-.4-.6-.7-1.2-.9-1.8-.1-.4-.2-.8-.3-1.1-.2-1.3-.2-2.6-.2-3.9 0-.9.1-1.9.2-2.8.1-.9.2-1.8.4-2.7 0-.3.1-.7.2-1 .2-1.3.5-2.5.8-3.8.1-.6.2-1.3.4-1.9.1-.3.2-.6.4-1.1-.5.2-1.2.3-1.8.4z"/><path class="st0" d="M28.1 35.6c-.2-.6-.3-1.2-.4-1.8 0-.3-.1-.6-.1-.9-.1.3-.3.6-.4.9-.1.3-.3.6-.5.8-.1.2-.4.4-.6.6-.6.1-1.1-.1-1.5-.5-.3-.2-.5-.5-.5-.9-.1-.3-.1-.6-.1-.9 0-1.2.1-2.3.5-3.4.1-.6.4-1.2.6-1.8 0-.1.1-.1.1-.2h.4c.2.1.3.1.6.4v.9c-.1.8-.3 1.6-.5 2.4 0 .3-.1.6-.1.9-.1.5-.1 1-.1 1.4 0 .4 0 .7.1 1.1.1.1.2 0 .2 0 .4-.2.6-.5.8-.8.4-.6.7-1.2 1-1.9 0-.1.1-.1.1-.2.2-.5.4-.9.5-1.5.2-1.1.5-2.2 1-3.2 0-.1.1-.2.2-.3 0-.1.1-.1.2-.2.4.1.8.2 1.1.5.1.2.1.4.1.6-.1.6-.1 1.2-.2 1.8-.1.8-.2 1.6-.2 2.5 0 .5-.1 1.1-.1 1.6 0 .4 0 .8-.1 1.2 0 .6.1 1.1.1 1.7 0 .2.1.5.1.7 0 .2.1.5.1.7-1.4-.5-2-1.2-2.4-2.2zm1.8-12.9c0 .4-.2.6-.4.8-.6.6-1.2 1.1-1.8 1.6-.4.3-.7.5-1.2.5-.1 0-.1-.1-.1-.2.1-.5.2-.9.5-1.3.4-.5.8-1.1 1.3-1.5l.6-.6c.1-.1.2-.1.4-.2.5.3.6.6.7.9zm16 15.6c.1 0 .2.1.3.1-.2.1-.4 0-.6 0-.5-.2-.9-.6-1.3-1.1-.4-.5-.7-1.1-.9-1.8-.4-1.1-.7-2.2-.8-3.4-.1-.7-.1-1.3-.1-2 0-1.4 0-2.7.1-4.1.1-1 .2-2 .4-3.1.2-.8.3-1.6.5-2.4 0-.1.1-.3.1-.5 0-.1 0-.2.1-.4-.1.1-.2.1-.4.2-.1 0-.2.1-.3.2-.5.3-.9.7-1.3 1-.2.2-.5.4-.6.7 0 .2 0 .4.1.6H41c-.1-.1-.2-.1-.3-.2-.2-.2-.3-.5-.1-.8.1-.2.3-.5.5-.6.7-.8 1.6-1.5 2.6-2 .1-.1.3-.2.5-.2.2-.2.2-.5.5-.6.2 0 .4 0 .6.1.6-.1 1.1-.3 1.6-.4.8-.2 1.6-.2 2.4-.2.6 0 1.1.2 1.6.4.8.4 1.4.8 2 1.4.4.5.6 1 .8 1.5.2.7.1 1.5-.1 2.2-.1.8-.4 1.5-.7 2.2-.5 1.2-1.2 2.2-1.9 3.2-.5.7-1.1 1.3-1.8 2-.6.6-1.2 1.1-1.9 1.5-.4.2-.7.5-1 .7-.5.3-.9.5-1.5.7-.1 1.8.2 3.5 1.1 5.1zm-1.2-6.6c.6-.5 1.2-1.1 1.8-1.6.8-.8 1.6-1.6 2.3-2.5.7-.9 1.3-1.9 1.8-2.9.4-.8.7-1.6.9-2.4.1-.6.2-1.3.2-1.9 0-.5-.2-.9-.5-1.3-.2-.4-.6-.7-1.1-.7-.2 0-.4-.1-.7-.1-1.1-.1-2.1.1-3.1.4-.4.1-.7.2-1 .5-.1.5-.1.9-.2 1.4-.1.7-.1 1.4-.2 2.2-.1.5-.1 1-.2 1.5 0 .6-.1 1.2-.1 1.8-.1.9-.1 1.9-.1 2.8v.4c-.1.8-.1 1.7-.1 2.6v.1c.2-.3.3-.3.3-.3zm9.6 4.8c-.4-.2-.8-.5-1-.9-.4-.6-.6-1.2-.7-1.8-.2-.7-.2-1.5-.2-2.2.1-.9.2-1.8.5-2.7.1-.3.2-.5.3-.8 0-.1.1-.2.2-.3.1-.2.3-.3.5-.2.4 0 .8.1 1.1.4v.4c-.1.9-.2 1.9-.4 2.8-.1.7-.1 1.4-.2 2v1.5c0 .4.1.8.2 1.2 0 .2 0 .5.1.7-.1 0-.2 0-.4-.1zm-.1-12.4c-.1-.4-.2-.7-.2-1.1 0-.8.1-1.6.5-2.3 0-.1.1-.1.1-.2.2-.1.4 0 .6 0 .2.1.5.1.6.4v.1c-.3.4-.4.8-.5 1.2-.2.8-.5 1.6-.8 2.3 0 0 0 .1-.1.1-.1-.1-.2-.3-.2-.5zm8.2 3.1c.4.1.7.4.8.8.1.3.2.6.2.9 0 .8 0 1.6-.1 2.4-.1.5-.1 1.1-.1 1.6 0 .3-.1.6-.1.9 0 .6 0 1.2.1 1.7-.1.1-.1 0-.2 0-.1-.1-.3-.1-.4-.2l-.3-.3c-.1-.1-.1-.2-.2-.3-.2-.2-.2-.5-.3-.8-.1-.6-.1-1.3-.1-1.9.1-.6.1-1.3.2-1.9 0-.4.1-.9.1-1.3 0-.3.1-.7 0-1-.1-.1-.2 0-.2 0-.3.3-.6.6-.8 1-.4.6-.7 1.2-.9 1.9-.5 1.5-1 2.9-1.4 4.5-.2.8-.4 1.6-.5 2.4-.1.6-.1 1.1-.2 1.6 0 .2-.1.3-.1.5h-.3c-.1 0-.2 0-.2-.1-.4-.1-.7-.3-.8-.7 0-.1-.1-.2-.1-.3-.2-.8-.4-1.6-.4-2.5C56 35 56 34 56 32.9c0-.8.1-1.7.2-2.5.1-.7.2-1.3.4-2 .2-.8.4-1.6.7-2.4.1-.2.1-.4.4-.5.4 0 .8.1 1.1.5-.1.4-.1.7-.2 1.1-.1.9-.2 1.9-.4 2.8 0 .3-.1.6-.1.8-.1.6-.1 1.2-.2 1.8-.1 1.1-.1 2.2-.1 3.3 0 .1 0 .2.1.3.1-.2.1-.5.2-.7l1.2-3.6c.2-.8.5-1.5.8-2.3.2-.7.6-1.4 1.1-2 .2-.3.5-.6.9-.7-.1.3.1.3.3.4z"/><path class="st0" d="M66.3 23.6c-.6.1-1.2.1-1.8.1h-2c-.8 0-1.5 0-2.3.1h-.5c-.1 0-.1-.1-.1-.1s0-.1.1-.1c.2-.1.4-.2.6-.2.7-.1 1.4-.1 2.1-.2.7-.1 1.4-.1 2-.2h.3c.7 0 1.4-.1 2.1-.1h.2c0-.1.1-.2.1-.2l.9-3c-.1-.3.1-.7.2-1 .2-.4.5-.8.7-1.2.4 0 .7.2.9.4.1.4 0 .7 0 1-.2.8-.4 1.7-.6 2.5-.1.5-.2.9-.3 1.3.1.1.3.1.4.1h2.4c.9 0 1.9.1 2.8.4.4.1.7.2 1.1.4.1 0 .1.1.2.2-.6 0-1.2 0-1.7-.1-.7 0-1.4-.1-2.1-.1-1.1 0-2.1 0-3.2.1h-.2c0 .1-.1.2-.1.4-.1.7-.3 1.4-.4 2-.1.5-.2 1.1-.2 1.6-.1.9-.2 1.8-.3 2.6v.5c0 .4 0 .7-.1 1.1v.7c0 .6 0 1.3-.1 1.9 0 .9.1 1.8.2 2.7 0 .6.2 1.3.4 1.9.2.7.4 1.4.8 2 .3.6.8 1 1.3 1.3.4.1.6 0 .9-.1l-.3.3c-.7.1-1.4-.1-2-.4-.6-.3-1.1-.7-1.5-1.2-.5-.5-.8-1.1-1.1-1.7-.5-1-.7-2.1-.8-3.3-.1-.7-.1-1.4-.1-2.1 0-.9.1-1.9.2-2.8 0-.4.1-.9.1-1.3.1-.9.2-1.9.4-2.8.2-1.1.4-2.1.7-3.2v-.2h-.3z"/><path class="st0" d="M73.3 34.5c-.2.6-.4 1.1-.6 1.7-.1.2-.2.4-.2.5-.1.2-.2.3-.5.4-.4 0-.7-.1-1.1-.2-.3-.1-.5-.3-.6-.5-.1-.2-.2-.4-.2-.6-.1-.6-.2-1.2-.2-1.7v-1.6c0-1.1.1-2.2.3-3.3.2-.9.5-1.7 1-2.4.3-.4.5-.6.9-.8.6 0 1.3.2 1.8.8.2-.4.2-.8.3-1.2.1-.4.2-.7.4-1.1.4-.3.7-.1 1.1 0 .4.1.7.1 1 .4 0 .1 0 .2-.1.3-.2.5-.2 1.1-.3 1.5l-.3 1.8c0 .5-.1.9-.1 1.4 0 .4-.1.7-.1 1.1 0 .6 0 1.1-.1 1.7v.7c0 .3 0 .6.1.9 0 .6.1 1.3.2 1.9.1.5.2.9.3 1.3 0 .1 0 .2.1.2 0 .2 0 .4.1.6-.1.1-.1.1-.2 0-.9-.4-1.5-1.1-2-1.9-.4-.8-.6-1.5-.8-2.4-.2.3-.2.4-.2.5zm-1.8 1.1c.1-.4.3-.8.5-1.3.4-1.4.8-2.9 1.3-4.3.1-.4.2-.8.2-1.3v-.3c-.1-.6-.2-1.1-.5-1.6-.1-.1-.1-.2-.2-.3-.1.1-.2.2-.2.3-.3.5-.5.9-.7 1.4-.2.7-.4 1.3-.4 2-.1.8-.1 1.6-.1 2.5v.9c0 .6 0 1.2.1 1.8-.2.1-.2.1 0 .2-.1 0-.1 0 0 0zm10.4 1.7c-.3.4-.6.7-1 .9-.5.2-1.1.3-1.6.1-.2-.1-.5-.2-.8-.3-.4-.2-.6-.4-.6-.8h.2c.1.2.3.3.5.5h.1c.2 0 .5-.1.7-.3.4-.4.7-.9.9-1.4.1-.2.1-.4.1-.6.1-.6 0-1.2-.4-1.7-.2-.3-.5-.6-.7-.9-.3-.4-.6-.7-.7-1.2-.2-.5-.3-1.1-.1-1.7.1-.2.2-.5.2-.7.1-.4.4-.7.7-1 .4-.5.7-.9 1.2-1.3.4-.3.8-.6 1.3-.7.3 0 .6.1.9.3 0 .1 0 .2-.1.3-.1.2-.3.4-.5.5-.6.7-1 1.4-1.3 2.2-.4.8-.5 1.6-.3 2.5.1.3.2.6.4.8l.9 1.2c.5.6.6 1.2.6 1.9v.4c-.2.4-.4.7-.6 1zm26.2.9c-.6-.5-1.1-1.1-1.3-1.8-.2-.6-.4-1.3-.5-1.9-.1-.8-.1-1.6-.1-2.4 0-.5.1-.9.1-1.4 0-.4.1-.8.1-1.3 0-.8.2-1.6.4-2.4.2-1.2.5-2.4.8-3.6.2-.9.4-1.8.6-2.6v-.4c-.2.1-.4.4-.6.5-1.2 1.4-2.1 3.1-2.7 4.8-.5 1.4-.9 2.8-1.2 4.2-.2.9-.4 1.9-.6 2.8-.1.3-.2.6-.4.9-.1.3-.2.5-.6.6-.2 0-.4-.1-.6-.1-.4-.2-.5-.6-.6-1-.1-.6 0-1.2 0-1.8 0-.1 0-.3.1-.5 0-.8.1-1.6.3-2.4.1-.6.2-1.2.2-1.7.1-.6.2-1.1.3-1.7.1-.6.2-1.2.1-1.8v-.4l-.1-.1c-.2 0-.3.1-.4.2-.5.4-.8.9-1.2 1.4-1.1 1.7-2.1 3.4-2.8 5.3-.2.5-.4 1.1-.6 1.6-.5 1.4-.8 2.8-1.1 4.4-.1.6-.1 1.2-.2 1.8 0 .5-.1.9-.2 1.4 0 .1 0 .1-.1.2s-.1.1-.2.1c-.6 0-1.1-.1-1.6-.5-.4-.5-.6-1.1-.7-1.8-.1-.5-.2-1-.2-1.5 0-.7-.1-1.4-.1-2.1v-1.4c0-.9.1-1.9.2-2.8.1-1 .4-2 .6-2.9l.6-2.7c.1-.6.3-1.3.5-1.9.2-.7.3-1.4.5-2 0-.2.1-.4.1-.5.5-.1.8.1 1.1.3.2.5.2 1 .2 1.5s-.1 1.1-.2 1.6c-.1.8-.2 1.6-.4 2.4-.1.8-.3 1.6-.4 2.4-.2 1.2-.4 2.4-.5 3.6v.2c-.1 1.3-.2 2.7-.1 4v.9c.2-.1.2-.2.2-.4.2-1 .5-2 .8-3.1.4-1.1.8-2.2 1.3-3.2.3-.7.7-1.4 1-2.1.6-1.2 1.3-2.3 2.1-3.3.4-.5.8-.9 1.3-1.2h.1c.2 0 .4 0 .6.1.2.1.3.2.4.4 0 .2.1.3.1.5 0 .5 0 1-.1 1.5-.1.6-.2 1.3-.2 1.9-.1.6-.2 1.3-.3 1.9-.1.4-.1.8-.1 1.2-.1.6-.1 1.2-.2 1.8v1.5c0 .1.1.3.1.4.1.1.2 0 .2-.1.1-.2.2-.5.4-.8l.6-2.1.6-2.7c.6-2.4 1.6-4.6 3-6.7.4-.6.8-1.1 1.3-1.6.1-.1.2-.2.5-.3.1 0 .4.1.5.1.2.1.4.3.4.6.1.5.1 1 0 1.5v.3c-.1.9-.1 1.8-.2 2.7-.1.7-.1 1.4-.2 2.1 0 .5-.1.9-.1 1.3v.1c-.1.7-.1 1.3-.1 2 0 .6-.1 1.2-.1 1.8 0 1 .1 2 .1 3 0 .5.2 1 .2 1.5.1.7.2 1.4.1 2.1-.3 0-.6-.1-.8-.4zm6.2-2.6c-.2-.6-.3-1.2-.4-1.8 0-.3-.1-.6-.1-.9-.1.3-.3.6-.4.9-.1.3-.3.6-.5.8-.1.2-.4.4-.6.6-.6.1-1.1-.1-1.5-.5-.3-.2-.5-.5-.5-.9-.1-.3-.1-.6-.1-.9 0-1.2.1-2.3.5-3.4.1-.6.4-1.2.6-1.8 0-.1.1-.1.1-.2h.4c.2.1.3.1.6.4v.9c-.1.8-.3 1.6-.5 2.4 0 .3-.1.6-.1.9-.1.5-.1 1-.1 1.4 0 .4 0 .7.1 1.1.1.1.2 0 .2 0 .4-.2.6-.5.8-.8.4-.6.7-1.2 1-1.9 0-.1.1-.1.1-.2.2-.5.4-.9.5-1.5.2-1.1.5-2.2 1-3.2 0-.1.1-.2.2-.3 0-.1.1-.1.2-.2.4.1.8.2 1.1.5.1.2.1.4.1.6-.1.6-.1 1.2-.2 1.8-.1.8-.2 1.6-.2 2.5 0 .5-.1 1.1-.1 1.6 0 .4 0 .8-.1 1.2 0 .6.1 1.1.1 1.7 0 .2.1.5.1.7 0 .2.1.5.1.7-1.4-.5-2.1-1.2-2.4-2.2zm8-7.4c-.1 0-.2-.1-.2-.1-.3-.3-.5-.7-.8-.9-.4.4-.6.8-.8 1.3-.2.5-.3 1.1-.4 1.7-.1.6-.1 1.2-.1 1.8-.1.8.1 1.6.3 2.5.1.4.3.7.5 1.1.1.2.3.3.5.4.5 0 .9-.2 1.3-.4l1.2-.6v.1c-.1.5-.4.8-.8 1.1-.3.2-.7.3-1.1.3-.7 0-1.4-.2-2.1-.6-.6-.3-1.1-.8-1.3-1.4-.2-.6-.4-1.2-.4-1.8 0-1.4.1-2.8.6-4.1.2-.6.6-1.2 1-1.7.5-.5 1-.7 1.7-.5.2.1.4.1.6.2.2.1.4.3.5.6.1.3.2.6.2.9-.3 0-.3 0-.4.1zm5 8.8l-.9-.3c-.4-.1-.7-.4-.9-.8-.2-.4-.3-.7-.4-1.1-.1-.5-.2-1-.2-1.5v-2.7c0-.5.1-.9.1-1.3.1-.4.1-.8.2-1.3 0-.2.1-.5.1-.7.1-.5.2-.9.2-1.4.1-.4.2-.7.2-1.1.1-.3.1-.7.2-1 .1-.4.2-.9.4-1.3l.6-2.1c.1-.4.3-.8.5-1.2.5-1.3 1-2.5 1.6-3.6.1-.3.3-.5.5-.8.5-.1.9.2 1.3.4.1.2.1.4.1.5-.1.6-.3 1.2-.5 1.8-.3 1.1-.6 2.1-.8 3.2l-.6 3c-.1.6-.2 1.1-.2 1.7 0 .2-.1.5-.1.7-.1.5-.2 1.1-.2 1.6-.1.6-.2 1.1-.2 1.6-.1.8-.2 1.5-.2 2.3 0 .2-.1.4-.1.6 0 .3-.1.5 0 .8.1 0 .1-.1.2-.1.3-.7.6-1.3.9-2 .2-.4.4-.9.7-1.3.2-.4.5-.8.8-1.1.1-.1.2-.2.3-.2.2-.1.4-.1.7-.1.2.1.4.1.6.3.2.2.2.5.3.8.1.8.1 1.6.1 2.5 0 1-.1 1.9-.1 2.9-.1.9 0 1.8.3 2.6-.1.1-.2 0-.4 0-.6-.2-1.1-.6-1.3-1.2-.2-.6-.4-1.1-.4-1.8v-2c0-.7.1-1.4.2-2.1 0-.3.1-.6.1-.9 0 0 0-.1-.1-.2-.1.1-.2.1-.2.2-.4.5-.6 1.1-.9 1.6-.5 1.2-.9 2.4-1.3 3.5-.3.8-.5 1.6-.6 2.5-.1.1-.4.1-.6.1zm9.7-.1c-.4-.1-.7-.2-1-.4-.6-.4-1-.9-1.3-1.5-.2-.6-.3-1.1-.3-1.7 0-1.1.1-2.1.3-3.2.2-1.1.5-2.1 1-3 .2-.4.4-.7.7-1 .2-.1.5-.1.8 0 .2.1.4.1.5.2.3.2.6.2.9.4.2.1.5.1.7.3.2.1.4.4.5.6.1.3.1.6.1.9-.1.8-.2 1.5-.3 2.3-.1.9-.4 1.8-.5 2.7-.1.4-.2.7-.3 1.1-.1.6-.4 1.1-.6 1.7-.1.2-.2.5-.4.7-.2-.1-.5-.1-.8-.1zm.3-7.4c-.2.8-.5 1.6-.6 2.5-.1.6-.2 1.3-.2 1.9 0 .3-.1.6 0 .9 0 .5.1.9.3 1.4 0 .1.1.1.2.2l.3-.3c.1-.1.1-.2.2-.4.2-.4.5-.9.6-1.4.4-1.3.8-2.7 1-4.1.1-.7.2-1.5.2-2.3 0-.2-.1-.5-.1-.7-.1-.2-.2-.4-.4-.5h-.4c-.5.9-.8 1.9-1.1 2.8zm15.8 5c-.2.6-.4 1.1-.6 1.7-.1.2-.2.4-.2.5-.1.2-.2.3-.5.4-.4 0-.7-.1-1.1-.2-.3-.1-.5-.3-.6-.5-.1-.2-.2-.4-.2-.6-.1-.6-.2-1.2-.2-1.7v-1.6c0-1.1.1-2.2.3-3.3.2-.9.5-1.7 1-2.4.3-.4.5-.6.9-.8.6 0 1.3.2 1.8.8.2-.4.2-.8.3-1.2.1-.4.2-.7.4-1.1.4-.3.7-.1 1.1 0 .4.1.7.1 1 .4 0 .1 0 .2-.1.3-.2.5-.2 1.1-.3 1.5l-.3 1.8c0 .5-.1.9-.1 1.4 0 .4-.1.7-.1 1.1 0 .6 0 1.1-.1 1.7v.7c0 .3 0 .6.1.9 0 .6.1 1.3.2 1.9.1.5.2.9.3 1.3 0 .1 0 .2.1.2 0 .2 0 .4.1.6-.1.1-.1.1-.2 0-.9-.4-1.5-1.1-2-1.9-.4-.8-.6-1.5-.8-2.4-.1.3-.1.4-.2.5zm-1.8 1.1c.1-.4.3-.8.5-1.3.4-1.4.8-2.9 1.3-4.3.1-.4.2-.8.2-1.3v-.3c-.1-.6-.2-1.1-.5-1.6-.1-.1-.1-.2-.2-.3-.1.1-.2.2-.2.3-.3.5-.5.9-.7 1.4-.2.7-.4 1.3-.4 2-.1.8-.1 1.6-.1 2.5v.9c0 .6 0 1.2.1 1.8-.1.1-.1.1 0 .2zm11.5 8.9c-.4-.4-.6-.9-.8-1.4-.2-.6-.3-1.3-.5-1.9-.1-.3-.1-.6-.1-.9-.1-1.2-.2-2.4-.1-3.5v-1.4c0-.2 0-.5.1-.7v-.3c-.1.1-.1.1-.2.1-.1.2-.2.4-.4.5-.2.2-.4.4-.7.6-.8.1-1.4-.2-2-.7-.3-.2-.4-.6-.4-.9v-1.2c.2-1.3.7-2.5 1.3-3.6.3-.5.7-.9 1.2-1.3.6-.4 1.2-.5 1.9-.2.1 0 .2.1.4.1.3-.5.4-1 .7-1.4.3-.1.6 0 .9.1.4.1.7.3.9.6-.1.4-.1.8-.2 1.2-.1.8-.2 1.6-.4 2.4 0 .4-.1.7-.1 1.1v.1c.1.3 0 .6 0 .9 0 .3 0 .6-.1.9v3.7c0 .5 0 1-.1 1.5v3c0 .7.1 1.4.1 2.1 0 .4 0 .7-.1 1.1-.5.1-.9-.3-1.3-.6zm-3-10c.6-.7 1.1-1.5 1.5-2.4.2-.5.5-1 .6-1.6.1-.4.1-.7.2-1.1.1-.4.1-.7 0-1 0-.1 0-.1-.1-.2-.1 0-.2.1-.2.1-.5.4-.8.8-1.1 1.3l-.6 1.2c-.4.7-.6 1.5-.8 2.2-.1.5-.2 1-.1 1.5v.3c.3 0 .5-.2.6-.3zm11.3 1.1c-.2-.6-.3-1.2-.4-1.8 0-.3-.1-.6-.1-.9-.1.3-.3.6-.4.9-.1.3-.3.6-.5.8-.1.2-.4.4-.6.6-.6.1-1.1-.1-1.5-.5-.3-.2-.5-.5-.5-.9-.1-.3-.1-.6-.1-.9 0-1.2.1-2.3.5-3.4.1-.6.4-1.2.6-1.8 0-.1.1-.1.1-.2h.4c.2.1.3.1.6.4v.9c-.1.8-.3 1.6-.5 2.4 0 .3-.1.6-.1.9-.1.5-.1 1-.1 1.4 0 .4 0 .7.1 1.1.1.1.2 0 .2 0 .4-.2.6-.5.8-.8.4-.6.7-1.2 1-1.9 0-.1.1-.1.1-.2.2-.5.4-.9.5-1.5.2-1.1.5-2.2 1-3.2 0-.1.1-.2.2-.3 0-.1.1-.1.2-.2.4.1.8.2 1.1.5.1.2.1.4.1.6-.1.6-.1 1.2-.2 1.8-.1.8-.2 1.6-.2 2.5 0 .5-.1 1.1-.1 1.6 0 .4 0 .8-.1 1.2 0 .6.1 1.1.1 1.7 0 .2.1.5.1.7 0 .2.1.5.1.7-1.4-.5-2-1.2-2.4-2.2zm7.3-12.2c0 .4-.2.6-.4.8-.6.6-1.2 1.1-1.8 1.6-.4.3-.7.5-1.2.5-.1 0-.1-.1-.1-.2.1-.5.2-.9.5-1.3.4-.5.8-1.1 1.3-1.5l.6-.6c.1-.1.2-.1.4-.2.4.3.6.6.7.9zm-1.5 13.1c-.4-.2-.8-.5-1-.9-.4-.6-.6-1.2-.7-1.8-.2-.7-.2-1.5-.2-2.2.1-.9.2-1.8.5-2.7.1-.3.2-.5.3-.8 0-.1.1-.2.2-.3.1-.2.3-.3.5-.2.4 0 .8.1 1.1.4v.4c-.1.9-.2 1.9-.4 2.8-.1.7-.1 1.4-.2 2v1.5c0 .4.1.8.2 1.2 0 .2 0 .5.1.7-.1 0-.3 0-.4-.1z"/></svg>