<?xml version="1.0" encoding="utf-8"?>
<!-- Generator: Adobe Illustrator 22.1.0, SVG Export Plug-In . SVG Version: 6.00 Build 0)  -->
<svg version="1.1" id="Capa_1" xmlns="http://www.w3.org/2000/svg" xmlns:xlink="http://www.w3.org/1999/xlink" x="0px" y="0px"
	 viewBox="0 0 1190.6 841.9" style="enable-background:new 0 0 1190.6 841.9;" xml:space="preserve">
<style type="text/css">
	.st0{fill:#FFFFFF;}
</style>
<g>
	<rect x="9.9" y="387.9" class="st0" width="1170.5" height="68.7"/>
	<g>
		<g>
			<g>
				<g>
					<path class="st0" d="M1182.8,453.7c0,3.7,0.4,2.3,0.5,2.9C1183.2,450.5,1182.7,453.8,1182.8,453.7z"/>
					<polygon class="st0" points="1181.9,393.3 1182,394.4 1181.9,390.9 1181.7,386.5 1178.4,386.6 1181.7,386.5 					"/>
					<path class="st0" d="M1129.3,386.4c5.3,0.7,20.5-0.1,30.5,0.1l1.7,0.2l4.5-0.6C1153.8,386.2,1137.9,386.6,1129.3,386.4z"/>
					<path class="st0" d="M1099.2,384.8c1.9,0.3-6.5,0.2,7,0.1c-0.7,0-0.9,0-1.3-0.1C1103.8,384.8,1102.1,384.8,1099.2,384.8z"/>
					<path class="st0" d="M1105,384.8C1110.9,384.8,1101.1,384.6,1105,384.8L1105,384.8z"/>
					<path class="st0" d="M1077.5,385l7.8-0.2c-1.6-0.2-8.6-0.2-6-0.3C1071.3,384.6,1072.9,384.7,1077.5,385z"/>
					<path class="st0" d="M1070.1,385.5l4.1-0.1C1073.4,385.3,1072.3,385.3,1070.1,385.5z"/>
					<path class="st0" d="M1082.7,385.2l-8.6,0.2c1.1,0.1,1.3,0.3,4-0.1C1077.4,385.5,1079.1,385.3,1082.7,385.2z"/>
					<path class="st0" d="M1087.6,385.3c4.4,0.2,10.1,0.3,2.2,0.5C1104.8,385.7,1102.6,385.2,1087.6,385.3z"/>
					<path class="st0" d="M1126.5,387.1l5.9,0.2l5.1-0.2C1134.9,387.2,1126.1,386.9,1126.5,387.1z"/>
					<path class="st0" d="M1028.7,384.6c-0.5,0.2,2.6,0.4,3.2,0.6l5.8-0.2C1034.7,384.9,1029.1,384.8,1028.7,384.6z"/>
					<path class="st0" d="M1031.9,385.2l-8.7,0.3C1031,385.5,1032.4,385.4,1031.9,385.2z"/>
					<polygon class="st0" points="1068.7,386.3 1082.9,385.8 1065.9,386.3 					"/>
					<polygon class="st0" points="995.6,384.6 1000.5,384.3 991.8,384.8 					"/>
					<path class="st0" d="M973.7,384.7c3.6-0.3-5-0.5-1.1-0.7c-6,0.1-11,0.3-15.6,0.5C961.8,384.4,967,384.4,973.7,384.7z"/>
					<path class="st0" d="M949.2,384.8c2.4-0.1,5-0.2,7.7-0.3C954.3,384.6,951.8,384.7,949.2,384.8z"/>
					<path class="st0" d="M1008.5,385.4c-0.7-0.1-2-0.3-6.8-0.4l3.4,0.4C1006.1,385.4,1007.3,385.4,1008.5,385.4z"/>
					<path class="st0" d="M1005.2,385.4l-0.1,0c-3.7,0-6.3,0-7.4,0C998.7,385.4,1000.9,385.4,1005.2,385.4z"/>
					<path class="st0" d="M1009.4,385.4c-0.3,0-0.5,0-0.9,0C1008.8,385.5,1009,385.5,1009.4,385.4z"/>
					<path class="st0" d="M1046,385.9c-5.1,0.2-15.7,0.5-5.4,0.9C1044.2,386.5,1038.3,386.3,1046,385.9z"/>
					<path class="st0" d="M1013.6,385.9l9.2,0.1c-0.2-0.1-1.8-0.3,0.7-0.4L1013.6,385.9z"/>
					<polygon class="st0" points="1009.1,386.1 1013.6,385.9 1010.2,385.9 					"/>
					<path class="st0" d="M965,385.2c-4,0.2-8.3,0.2-13.2,0.2c5.3,0.1,10.7,0.1,15.9,0.1C968.3,385.5,970.6,385.2,965,385.2z"/>
					<path class="st0" d="M984.5,385.4c-0.3,0-0.6,0-0.9,0C984.2,385.4,984.6,385.4,984.5,385.4z"/>
					<path class="st0" d="M903.4,385.5c0.3,0,0.5,0.1,0.8,0.1c0.1,0,0.1,0,0.2-0.1L903.4,385.5z"/>
					<path class="st0" d="M968.5,385.7c4,0.1,6.3,0,8.6-0.2c-3,0-6.1,0.1-9.5,0.1C967.3,385.7,967.2,385.7,968.5,385.7z"/>
					<path class="st0" d="M935.7,385c2.1,0.1,4.4,0.2,6.8,0.2C940.6,385.1,936.5,384.9,935.7,385z"/>
					<path class="st0" d="M982.3,385.3c0.2,0,0.4,0,0.6,0C981.6,385.2,981.8,385.2,982.3,385.3z"/>
					<path class="st0" d="M982.3,385.3c-2,0.1-3.6,0.2-5.2,0.3c2.4,0,4.6-0.1,6.6-0.1C983.2,385.4,982.7,385.3,982.3,385.3z"/>
					<path class="st0" d="M888.8,388.2c0.7-0.4,11.1-0.8,20.1-0.3c8.8-0.3,3.1-1.6-4.7-2.3c-0.3,0.2-0.3,0.3-9.4,0.6
						c3.2,0.2,20.2,0.5,12.5,0.9c-12,0.2-9.9-0.1-15.7-0.3c5,0.5-15.3,0.7-12.7,1.4l10.6-0.3C889.7,387.9,885.8,388.1,888.8,388.2z"
						/>
					<path class="st0" d="M921.5,385.6l3.7,0c-4.3-0.1-7.3-0.2-12.9-0.5c-6.2,0.2-7.5,0.3-7.9,0.5l18.4,0.1L921.5,385.6z"/>
					<path class="st0" d="M942,385.5c-2.9,0.4-11.9,0.6-6.4,1.1c11,0,7.7-0.4,14.2-0.5c-17.7,0.1,5.1-0.2-7.7-0.5
						c3.5-0.1,6.6-0.1,9.6-0.1c-3.2-0.1-6.3-0.1-9.2-0.2c0.2,0,0.3,0,0.4,0l0.1,0l0,0c0.8,0.1,1,0.1,0.2,0.1c-0.1,0-0.3,0-0.4,0
						C942.7,385.4,942.4,385.5,942,385.5c-5.1-0.1-0.8-0.1,0.8-0.2c0.1,0,0.2,0,0.2-0.1c0,0,0,0-0.1,0l-17.7,0.2
						C929,385.6,933.7,385.6,942,385.5z"/>
					<path class="st0" d="M1031.1,387.7c-0.6,0-0.5-0.1-0.6-0.1C1029.4,387.7,1028.9,387.7,1031.1,387.7z"/>
					<path class="st0" d="M1023.8,387.4c1.3-0.1,2.4-0.2,6.6-0.2c3.6,0.1,0,0.2,0.2,0.3c2.5-0.1,8.8-0.3,0.9-0.5l-1.3,0.1
						c-7.1-0.1-16.3-0.7-15.1-0.7C1017.2,386.8,1019,387.1,1023.8,387.4z"/>
					<path class="st0" d="M982.4,386.6l-14.8,0.2l7.5,0.4l-0.4-0.2C983.2,387.1,981.4,386.8,982.4,386.6z"/>
					<polygon class="st0" points="901.7,385.3 903.7,384.8 895.2,385.5 					"/>
					<polygon class="st0" points="882.5,385.3 883.2,384.9 878.2,385.2 					"/>
					<path class="st0" d="M152.1,454.2l4.3-0.1C154.4,454.1,153.1,454.2,152.1,454.2z"/>
					<path class="st0" d="M120.7,454.2l-0.8,0.2C121.3,454.3,121.9,454.2,120.7,454.2z"/>
					<path class="st0" d="M411,385.4c-6.3-0.4-13.4-0.9-12.6-0.5l1.9,0.4C404.7,385.2,408.1,385.3,411,385.4z"/>
					<path class="st0" d="M88,388c0.6,0,1.2,0.1,1.8,0.1c1.5-0.1,3-0.3,4.3-0.4C92.3,387.8,90.2,387.9,88,388z"/>
					<path class="st0" d="M83.6,389.7l-8.3-0.3C77.1,389.6,79.8,389.7,83.6,389.7z"/>
					<path class="st0" d="M323.7,453.7l5.1-0.4C320.9,453.3,324.4,453.5,323.7,453.7z"/>
					<path class="st0" d="M685.9,385.5c-5.5-0.2-9.8-0.2-13.6-0.3C678.8,385.5,684.1,385.8,685.9,385.5z"/>
					<path class="st0" d="M139.7,458.8c2.7-0.1,3.8-0.2,3.7-0.3C140.7,458.6,139.2,458.7,139.7,458.8z"/>
					<path class="st0" d="M656.5,385.2c1,0,1.9,0.1,2.9,0.1c4-0.1,8-0.1,12.9-0.1C667.4,385,661.9,384.9,656.5,385.2z"/>
					<path class="st0" d="M946.3,454.1c0.5,0,1,0,1.4,0.1C947.8,454.1,947.2,454.1,946.3,454.1z"/>
					<path class="st0" d="M1127.7,458.5c-1.8,0-4.7,0-7.4,0C1121.5,458.5,1123.8,458.5,1127.7,458.5z"/>
					<path class="st0" d="M805.3,385.1C809.3,385.1,805.9,385.1,805.3,385.1L805.3,385.1z"/>
					<path class="st0" d="M825.1,386.8c-0.9,0-1.5,0.1-1.6,0.2C823.8,387,824.4,386.9,825.1,386.8z"/>
					<path class="st0" d="M615.9,387.9c-0.1,0-0.2,0-0.4,0C616.8,388,616.6,388,615.9,387.9z"/>
					<path class="st0" d="M811.4,385.3c-1.5-0.1-3.3-0.1-5.2-0.1C807,385.2,808.6,385.3,811.4,385.3z"/>
					<path class="st0" d="M810.6,385.1c1.4,0,2.5,0,3.6,0C814.7,385.1,814.2,385,810.6,385.1z"/>
					<path class="st0" d="M799.6,385.2c2.3,0,4.5,0,6.6,0c-0.8,0-1.1-0.1-0.9-0.1C804.1,385.1,802.4,385.1,799.6,385.2z"/>
					<path class="st0" d="M612.7,455.3c0.3,0,0.6,0,0.9,0C617.7,455.1,615.9,455.2,612.7,455.3z"/>
					<path class="st0" d="M305,389.9c0.2,0,0.3,0,0.5,0c-0.2,0-0.4,0-0.6,0L305,389.9z"/>
					<path class="st0" d="M290.4,390.2c6.2-0.5,9.8-0.5,14.5-0.4l-4.8-1.3L290.4,390.2z"/>
					<path class="st0" d="M227.3,454.1l-10.3-0.4c12.4-0.6,21.4-0.4,11.7-1c-1.5,1.4-39.9,0.1-41.4,1.5l-6.8-0.3
						c1.9,0,2.3-0.1,4.2-0.1c-13.2-0.7-9.8,1-26.7,0.8c-5.9-0.1-10-0.3-6-0.5l-13.2,0.3c-3.8,0-2.9-0.3,0.9-0.2l-20.1,0.1l0.1,0
						c-2.9,0.2-9.4,0.5-12.5,0.7c-5.1-0.2,2.6-0.1,1.3-0.3l-11.1,0.3c-4.5-0.4,4.7-0.7,12.4-0.6c-10.4-1.4-9.2,0.3-31.7-0.5
						l10.5-0.2c-6.8-0.8-15-0.5-26.9-1c2.8,0.3,23.8,1.2,11.7,1.5c-3.4-0.1-7.9-0.2-14.4,0.1c-0.1-0.5-6.4-0.4-14.4-0.3l0.5-0.6
						c-8.6,0.2-7.9,0.5-13,0.8c-9.6-0.1-11.6-0.6-13.8-1c-1.9,0-3.2,0-4,0c-0.9,0-0.7,0-0.8,0.1c0,0,0,0,0,0.1c0,0,0,0,0.1,0
						c0.1,0,0.2,0,0.3,0c0.5,0,1,0.1,1.6,0.2c1.1,0.1,2.2,0.2,1.8,0.3c-0.2,0-0.7,0.1-1.8,0.1c-0.7,0-1.7,0-3.2,0.1
						c-0.1,0-0.3,0-0.4,0c0-0.3,0-0.6,0-0.9l0-0.4c0-0.3,0-0.5,0-0.8c0-1.4,0-2.9,0-4.3c0-2.8,0-5.5-0.1-8.3
						c-0.1-5.6-0.2-11.6-0.4-19c0.2-8.9,0.4,1.6,0.6-1.6l-0.5-7.9c0-1.9,0.2-1.3,0.2-1c-0.2-6.7-0.6-0.6-0.8-11
						c-0.2-0.6-0.2-2-0.2-3.9c0-1,0.1-2.1,0.1-3.3c0-0.7,0.1-1.6,0.1-2.4c0.6,0,1.1,0.1,1.7,0.1l0.4,0l0.5,0c0.5,0,1,0,1.5,0
						c2,0.1,4,0.1,6,0.2c4.1,0.1,8.2,0,11.8-0.2c3.2,0.2-1.5,0.4-0.6,0.6c17.8-0.5,15.3-0.4,29.9-1.1l12.5,0.4
						c-9.2-0.5,2.5-1,12.8-1.5c-3.3-0.2-6-0.4-7.9-0.5l16.4-0.3c2,0.1,0.3,0.3-2.4,0.6c1.1-0.1,2.2-0.1,3-0.2c5.9,0.2,2.8,0.6-1.4,1
						c-2-0.1-4-0.3-5.9-0.4c-4,0.4-7.8,0.8-7,1.2c1.1-0.1,3.1-0.1,5.4-0.2c-1.1,0.1-1.7,0.2-1.2,0.3c0.6,0.1,2.3-0.1,4.9-0.2
						l3.7,0.7l0.9-0.3L118,390c15.3-0.7,28.6-1.8,53-2.1c-6,0.5-1.3,0.9-1.6,1.5c-6.6-0.7-18.8,0.3-31.4,0.1
						c6.6,0.1,5.1,0.4,3.5,0.5l22.5-0.6c-0.5,0.5,4.8,0.4,10.6,0.6c-4.4-1,16.8-0.7,25.9-1c0.6,0.3-1.6,0.7-12.8,0.6
						c12.3,0.8,15.9-1.2,28-0.5c-2.7,0-4.2,0-5.3,0.1c6.4-0.3,21.9-0.1,18.3,0.2l-2.7,0c18.1,0.1,55,0,57.7-0.8
						c0.2,0.1-2.4,1-3.5,1.2l32.3-2.9c-2.8,0.7,8.1,2.5-6.9,2.9c4.3,0.1,9.6,0.2,18.7,0c-2.9-0.1-7.3-1.1-3.3-1.1
						c11,0.8,7.6,0.4,21.2,1.1c-4.4-0.2,0.5-1.3,7.4-1.3c-1.1,0.2,0.6,1.1-2,1.2l17.3-1.1c-4.3,0.2-0.8,1,3.1,1.3
						c-1.8-0.2,15,0,19.6-0.1l-7.3-0.3c19.6,0.2,19.3-1.6,38.7-1.5c-2.3,0.2-5.8,1.4,4.1,1.6c4.5-0.6,20-2.8,37.2-3.2l3.3,0.3
						l13.2-0.4c-8.2,0.9-31.2,2.7-43.8,3.4c7.3,0.3,2,0.4,13,0.4c3.9,0.3-6,0.5-9.2,0.5l25.5,0.2c-1.1-0.7,19.5-0.7,18.5-1.2
						l-27.7,0.7c-1.1-0.7,16-1.9,34.1-1.8c4.6,0.3-3.4,1.2-3.1,1.4c2.3-0.2,17.2-0.4,18.8-0.3l-7.7,0.4c10.1,0.3,16.4-0.9,28.5-0.2
						c4.2,0,12.5,0.9,13.2,0.5c-6.8-0.8-8.1-3.1-3.6-3.7c1.5,0.1,21.9,0.7,26.7,1.1c6.9,0.6-10.3,1.4-4.5,2c0.3-0.2,4-0.4,5.6-0.5
						c4.4,0.2-1.8,0.6,7.7,0.5c1.6-0.7,19.4,0.1,4.5-0.6c9.3-0.2,9.9,0.1,20.8,0.1c-3.5-0.4,9.8-1.5,19.2-1.7
						c-0.6,0.2,1.5,0.4,2.6,0.5c19.1,0.1,29.4,0.4,47.2,0.4c1.6,0.2,10.2,0.4,6.6,0.7c2.6-0.1,4.9-0.4,10.4-0.4
						c10.6,0.6-12.2,0.1-4.1,0.8c0.7-0.4,14.2-0.5,22-0.8c-2.4-0.6-18.1-0.1-25.9,0.1c0-0.8,13.6-1.7,32.2-2.1
						c14.8-0.2,6.4,0.5,9,0.4c27.8,0.1,23.7-1.5,46.7-0.9c9.2,0.5,0.4,1.1,2.4,1.5c-12.1,0.2-18.5-0.3-26.7-0.3l10.1,0.3
						c-3.8,0.2-11.9,0.3-16.3,0.2c7.7,0.5,46.9,0.1,68.4,0.5c3.8-0.2,10.4-0.4,7.3-0.6l-6.8,0.1c-6.2-0.4,12.8-0.6,4.2-0.8
						c9.1-0.3,19.3-0.8,32.1-0.5l2.4,0.6c-0.3-0.2-8.4-0.4-12-0.2c5.3-0.3,19.6,0.8,25.5,0l-9-0.4c9.1-0.3,20.4-1,31.8-0.8
						c-5.2-0.6-2.6,0.1-10.7-0.6c7,0.9-29,0-17.8,0.9c-8.3-0.8-14.3-0.3-25.1-1c0.3,0.2,3.8,0.4-5.7,0.3c-0.4,0.1-1.4,0.1-2.1,0.2
						c-0.3,0-0.4,0-0.6,0c0.2,0,0.3,0,0.5,0c-0.4,0-0.5,0,0.2,0c2.3,0.1,4.1,0.2,4.9,0.3c-4.7,0.5-19.9,0.4-25,0.7
						c-5.7-0.1,2.4-0.2-0.7-0.4l-7.7,0.4c-0.8-0.4-15-0.7-1.7-1l-12,0c-7.1-0.3-16.8-0.4-22.8-0.2c-5.7-0.1-14.3,0.5-9.4,0.1
						l-18.8,0.3l-0.2-0.1c-18.6-0.1-38.2,0.7-59.4-0.1c-6.2,0.1-12.7,0.3-23.2,0.1l-2-0.4c-8,0.1-24.1-0.4-27.5,0
						c-8.7-1-38.9-0.2-53-0.4l-0.5,0.5c-9.7,0-19,0.1-31.1,0.3l0.7,0.4c-10.4,0.4-26.7-0.3-43.1-0.3c1.1-0.2,5.3-0.1,8.2,0
						c-19.6-1-41.4,0.7-59.2,0c-4.4,0.2-7.7,0.1-10.8,0c0.4,0,0.8,0,1.1,0c-0.5,0-1.1,0-1.8,0c-2-0.1-4-0.2-6.2-0.2
						c1.9,0.1,3.6,0.2,5.2,0.2c-3.4,0-8.6,0.1-13.7,0.2l-2.2-0.5c-0.4,0-0.7,0-1.2,0c-5-0.2-4,0.2-1.4,0.6c-2.6,0.1-4.9,0.2-6.7,0.3
						c-4.1-0.8-13.3,0.3-18.9-0.6c-3.4,0.4-25.6,0.3-28.3,1.2c-0.2-0.1-1.7-0.2,1.1-0.2c-5.7-0.1-11.3-0.2-16.4,0l-2.4-0.6
						l-12.4,0.8c-7.5-0.4-10.6-0.6-3.2-1.1c-18,0.7-14.6,0.3-30,1l0.7-0.4c-5.5,0-14.3,0.5-17.6,0.2c-12.3-0.8-60.7-0.1-92.2-0.8
						c6.1,1.2-14.6-0.5-15.9,0.4c-1.8-0.3-6.2-0.4-1.1-0.7c-16.1,0.3-24.1-0.4-35.2,0.3c-1.8-0.3,3.4-0.4,1.8-0.6
						c-1.3,0.1-5.1,0.2-6.8,0.1c-1.6-0.2,2.4-0.2,4.9-0.4c-16.4,0-18.1,0.9-19.3,1.7c-8.3-0.4-12.5-0.3-18.5,0.2
						c-2.9-0.3-7.7-0.5,2.5-0.6c-5.7,0-35.1-0.4-35.6,0.3c-1.8-0.2-8,0-9.5,0c-6.4,0-9.9,0-13.4-0.1c-3.6,0-7.2,0-13.8,0l4.1,0.1
						c-1.6,0.3-4.1,0.4-6.5,0.4c0,1.2,0,2.4,0,3.7c0,1.1,0,2.3-0.1,3.6c0,2.5-0.1,5.3-0.1,8.5l-0.1-0.3c-0.6,23.4,0.3,10.1-0.4,33.1
						l0.5-1.3c0.4,0.8,0.4,3.7,0.3,7.7c-0.1,2-0.1,4.3-0.2,6.7c0,1.2-0.1,2.5-0.1,3.8c0,1.6-0.1,3.3-0.1,5c5.6,0.1,9,0.1,12.8,0
						l-4.8-0.3c7.3-0.4,20.4,1.4,27.8,1.5c1.6,0.1-2.5,0.1-4.8,0.2c19.2,0.6,2.5-0.6,16.8-0.8c2.6,0.3-3.4,0.9,6.2,0.9
						c4.8,0.3,28-1.1,41.1-0.5c-2.9-0.3-5.8-0.5,0.9-0.7c10.2-0.1,27.6,1,36.8,0.2c1.3,0.1,1.8,0.1,1.8,0.2c7.8-0.2,25.3-0.4,30-0.8
						c7.2,1.7,48.5-0.8,48.3,0.7l24-0.1l-0.6,0.2c15.3,0.1,20.7-0.3,26.1-0.6c3.5,0.1,1,0.2,0.7,0.3c22.4,0.3,24.6,0.2,43.4-0.5
						l2,0.5c5.1-0.3,32.4,0.8,54.3,0.2c-0.2,0.1-0.7,0.2-2.4,0.2c24.7-0.6,59.1,1.4,68.2-0.4l16.3-0.4c-21.1-0.1,3.1-0.8-5.5-1.1
						c8.3-0.1,21.4,0.5,11.3,0.6l-1.6-0.1c-3.7,0.9,26.2,0.3,25.6,1c41.5,0,82,0.5,120.8,0.5l-4.5-0.7l13.6,0
						c3.6,0.2,4.8,0.6-4.9,0.5c2.5,0.2,6.6,0.1,10.1,0c3.5-0.2,6.3-0.4,6.4-0.5c18.9,0.3-7.4,0.9-1.6,0.9l7.9-0.1l-1.8-0.1
						c6.4-0.3,7-0.6,18.6-0.6c7.4,0.1,3.8,0.5,6.7,0.5c0,0,0.2,0,0.9,0.1c0.7,0,1.8,0,3.5,0l17.1,0.1l-6.8-0.6
						c7.6-0.3,16.1,0,8.2-0.6c11.6,1,63.7,0.4,70.8,0.7c10.6-0.4,21.1-0.4,34-0.4c-3.2-0.1-5.2-0.8,6-0.7
						c-4.1,1.3,20.5,0.6,29.5,1.5c-8.1-0.6,31.8-0.2,19.1-1.1c9.3,0.1,0.6,0.5,7.6,0.8c22.2-0.5,49,0.3,76.4,0.2
						c0.4-0.2-4.2-0.4,1.7-0.7l14.5,0.9c5.4-0.1,5-1,14.9-0.4c-1.4-0.1-3.5-0.4,0.1-0.4c53.8,0.9,109.9-0.7,164.6,0.9
						c-7.4-0.3-2.5-0.4,3.2-0.4c-3.7-0.1,0.1-0.4-0.6-0.7l22.9,0.7c4.2-0.7,24.5,0,26.9-0.7l-7.2,0.1c9.6-0.7-13.5-1.7-12.1-2.6
						c-10.8,0.8-28.4-1.3-46.1,0c-3.9-0.2,3.3-0.3,1.2-0.5c-4.5,0.4-9.9,0.5-19.9,0.3l1.1-0.1c-28.2,0.1-40.3-0.3-72-0.6l2.3,0.5
						c-6.8-0.1-8.2-0.2-11.4-0.3c-7.8,0.7,19.1,0,12,0.8c-9-1-48,0-54.1-1.1c-10.5,0,3.1,0.5-7.4,0.5l-2.8-0.3l-2.6,0.4
						c-6.9-0.1-10.3-0.4-10.6-0.7c1.7,0,4.7-0.1,6.5-0.1c-8.9-0.3-25.1,0.1-28.2,0l10.1,0.2c-28.6,0.3-63.5-0.1-91.1,0.5l2.1,0.2
						c-21.1,0.4-16.9-0.2-40-0.1l0.8-0.1c-4.6,0.2-10.8,0.3-17.2,0.3c5.8-0.3-11-0.5-3.3-0.8c-22.9,0.4-11.3,0.3-26.4,1.2l-3.5-0.4
						c-5.1,0.3-5.6,0.5-17.1,0.6c9.5-0.3-7.4-0.6,3.2-1c-24.3-0.8-36,0.8-47.2-0.4c-11.1,1,21,0.6,14.8,0.8
						c5.2,0.3-9.2,0.8-16.8,0.7c-7.8,0-13.2-1.3-32.7-1.3c1.9,0,2.1-0.1,4-0.1c-7.3-0.3-14.3,0.4-23.2-0.1c-5,0.6-11.6,0-13.1,0.8
						l17.9-0.2c-10.1,0.2-19.6,1.1-36.4,0.7c1.3-0.2,6.3-0.4,9.7-0.5c-4.9-0.2-9.4,0.2-14.5-0.1c1.4-0.8,21.7-0.2,32.6-0.8
						c-5.2-0.3-20.5,0.6-15.1-0.3c-7.8,1.1-19.2-0.1-32.4,0.7l0.9-0.5c-2.1,0.1-6.4,0.3-10.3,0.3l7-0.6c-10.7,0.5-20.6-0.5-30.9-0.2
						c21.5,0,4.8,0.6,13.9,0.9c-26.5,0.6-15.2-1.2-44.9-1c4-0.1,15.1,0.3,8.8,0.5c-5.6-0.1-13.1-0.3-16.6-0.5
						c-19.6,0.1,3,0.5-5.3,0.8c-6.7-0.6-9.6,0.2-18.3,0.4l-0.1-0.5c-22.4-0.3-5.9,1-26.1,0.6l8.5-0.7l-10.5,0.2l2.2-0.5
						c-11.4,0.4-15,0.3-26.2,0.1c2.6,0.3-1.5,0.9-11.4,0.9c-6.8-0.3,3.8-0.5-10.3-0.4c3.2-0.3,6.6-0.7,12.8-0.2
						c0.6-0.2,3.1-0.3,3.8-0.5c-7.3-0.3-18.3-0.1-23.4-0.1c2,0,4.3,0,5.5,0.1l-20.4,0.7c-3.2-0.2-0.7-0.3,1.9-0.5
						c-4.1,0.1-7,0.3-13,0.3c1.6-0.4,1.2-0.8,9.8-1l-19.4,0.4c-1.3-0.2-10-0.5-7.4-0.6c-10.8-0.2-26.4,0.8-40.7,0.5
						c-0.7,0.1-2.2,0.1-5.3,0.2c-13.4-0.1-25.3-0.6-41.2,0l-9-0.7c-12.4,0.2,12.2,0.9-8.5,1.2c-14.7,0.2-5.5-0.6-10.6-0.8
						c-7.3,0.4-20,1.1-33.5,0.5C219.7,454,223.2,454.1,227.3,454.1z M73.8,454.4c3-0.1,8.9-0.4,11.1-0.1
						C81.5,454.8,78.9,454.5,73.8,454.4z M110.6,388.9c-2.2,0.2-5.6,0.1-9.5-0.1C103.9,388.7,107.1,388.8,110.6,388.9z M760.6,385.5
						c-0.1,0-0.2,0-0.3,0C753.7,385.4,756,385.4,760.6,385.5z M774.4,385.7c1.4-0.1,1.3-0.1,0.7-0.2c-1,0.1-4.1,0.1-7.6,0.1
						C768.5,385.8,770.3,385.8,774.4,385.7z M656.2,458.5l-2.7-0.1C659.6,458.2,657.9,458.4,656.2,458.5z"/>
					<path class="st0" d="M84.2,389.5c-0.8-0.1-1.1-0.2-1.3-0.3C81.7,389.4,81.7,389.5,84.2,389.5z"/>
					<path class="st0" d="M322.8,453.8l0.5,0c0.3,0,0.4-0.1,0.5-0.1L322.8,453.8z"/>
					<path class="st0" d="M561,389.8c-2.8-0.1-4.4-0.2-5.5-0.2C555.4,389.7,556.7,389.8,561,389.8z"/>
					<path class="st0" d="M847.4,384.9l-8.8,0.1c4.3,0,5.8,0.1,7.9,0.2C846.3,385.1,844.7,384.9,847.4,384.9z"/>
					<path class="st0" d="M924,387.9c1.3-0.1,2.7,0,4-0.1l-0.4-0.2C922.2,387.6,918.3,387.8,924,387.9z"/>
					<path class="st0" d="M855.6,386.5c0.7,0.4,6.2,0.3,12.4,0.2c-0.4,0-0.7,0-1.1,0C868.7,386.1,862.2,386.3,855.6,386.5z"/>
					<path class="st0" d="M869.4,386.7c1.9,0,3.9,0,5.7,0C875.9,386.5,872.8,386.6,869.4,386.7z"/>
					<path class="st0" d="M791.9,385.5c2.9,0.1,1.8-0.5,3.5-0.4C798.7,384.6,775.8,385.7,791.9,385.5z"/>
					<polygon class="st0" points="860.6,387.9 858.4,387.4 854.9,387.8 					"/>
					<path class="st0" d="M811.8,387.5l9.9,0.1c-0.1-0.1,1.1-0.1,2.6-0.2C818.2,387.4,811.6,387.3,811.8,387.5z"/>
					<path class="st0" d="M824.3,387.5c3.2,0,6.2,0,7.9-0.1C830.5,387.4,826.9,387.4,824.3,387.5z"/>
					<polygon class="st0" points="847.1,388 844.2,387.9 837.2,387.9 					"/>
					<path class="st0" d="M705.6,387.4l-10.8,0.1c-1.1,0.2,1.8,0.3,5.9,0.2C703.3,387.6,707.3,387.6,705.6,387.4z"/>
					<path class="st0" d="M738.2,388.8c-2.9-0.1-3.1-0.2-4.8-0.4l-0.3,0.6L738.2,388.8z"/>
					<path class="st0" d="M706.8,388.9c-1.1,0.2-15.6,0.5-2,0.5C705.9,389.2,716.7,389,706.8,388.9z"/>
					<polygon class="st0" points="544.3,388.1 547.1,388.1 546.7,387.1 					"/>
					<path class="st0" d="M401.2,390.6c12.8,0.2,3-0.6,14.6-0.3c3-0.2-9.4-0.2-6.4-0.5C401.7,390,397.6,389.9,401.2,390.6z"/>
					<path class="st0" d="M409.4,389.8c1.2,0,2.5-0.1,3.9-0.2C411.1,389.7,410,389.7,409.4,389.8z"/>
					<polygon class="st0" points="1157.8,459 1166,459.2 1160.7,458.9 					"/>
					<path class="st0" d="M1173.5,458.3l1.9,0.6l4.9-0.6C1178.5,458.4,1174.9,458.4,1173.5,458.3z"/>
					<path class="st0" d="M51,453.1l-0.6,0.2c1.3,0.2,3.2,0.2,7,0.2L51,453.1z"/>
					<polygon class="st0" points="162.4,453.6 160.5,453.6 164.1,454.1 					"/>
					<path class="st0" d="M255.9,452.8c-3.8,0-8.3,0.1-12.1,0.1C252.1,452.8,257,453.6,255.9,452.8z"/>
				</g>
			</g>
		</g>
	</g>
</g>
</svg>
