<?xml version="1.0" encoding="UTF-8"?>
<svg width="1176px" height="76px" viewBox="0 0 1176 76" version="1.1" xmlns="http://www.w3.org/2000/svg" xmlns:xlink="http://www.w3.org/1999/xlink">
    <!-- Generator: Sketch 51 (57462) - http://www.bohemiancoding.com/sketch -->
    <title>Custom Preset 7</title>
    <desc>Created with Sketch.</desc>
    <defs></defs>
    <g id="Custom-Preset-7" stroke="none" stroke-width="1" fill="none" fill-rule="evenodd">
        <g id="header-bg" transform="translate(-1.000000, 0.000000)" fill="#FFFFFF" fill-rule="nonzero">
            <rect id="Rectangle-path" x="1.9" y="3.9" width="1170.5" height="68.7"></rect>
            <g id="Group">
                <path d="M1174.8,69.7 C1174.8,73.4 1175.2,72 1175.3,72.6 C1175.2,66.5 1174.7,69.8 1174.8,69.7 Z" id="Shape"></path>
                <polygon id="Shape" points="1173.9 9.3 1174 10.4 1173.9 6.9 1173.7 2.5 1170.4 2.6 1173.7 2.5"></polygon>
                <path d="M1121.3,2.4 C1126.6,3.1 1141.8,2.3 1151.8,2.5 L1153.5,2.7 L1158,2.1 C1145.8,2.2 1129.9,2.6 1121.3,2.4 Z" id="Shape"></path>
                <path d="M1091.2,0.8 C1093.1,1.1 1084.7,1 1098.2,0.9 C1097.5,0.9 1097.3,0.9 1096.9,0.8 C1095.8,0.8 1094.1,0.8 1091.2,0.8 Z" id="Shape"></path>
                <path d="M1097,0.8 C1102.9,0.8 1093.1,0.6 1097,0.8 Z" id="Shape"></path>
                <path d="M1069.5,1 L1077.3,0.8 C1075.7,0.6 1068.7,0.6 1071.3,0.5 C1063.3,0.6 1064.9,0.7 1069.5,1 Z" id="Shape"></path>
                <path d="M1062.1,1.5 L1066.2,1.4 C1065.4,1.3 1064.3,1.3 1062.1,1.5 Z" id="Shape"></path>
                <path d="M1074.7,1.2 L1066.1,1.4 C1067.2,1.5 1067.4,1.7 1070.1,1.3 C1069.4,1.5 1071.1,1.3 1074.7,1.2 Z" id="Shape"></path>
                <path d="M1079.6,1.3 C1084,1.5 1089.7,1.6 1081.8,1.8 C1096.8,1.7 1094.6,1.2 1079.6,1.3 Z" id="Shape"></path>
                <path d="M1118.5,3.1 L1124.4,3.3 L1129.5,3.1 C1126.9,3.2 1118.1,2.9 1118.5,3.1 Z" id="Shape"></path>
                <path d="M1020.7,0.6 C1020.2,0.8 1023.3,1 1023.9,1.2 L1029.7,1 C1026.7,0.9 1021.1,0.8 1020.7,0.6 Z" id="Shape"></path>
                <path d="M1023.9,1.2 L1015.2,1.5 C1023,1.5 1024.4,1.4 1023.9,1.2 Z" id="Shape"></path>
                <polygon id="Shape" points="1060.7 2.3 1074.9 1.8 1057.9 2.3"></polygon>
                <polygon id="Shape" points="987.6 0.6 992.5 0.3 983.8 0.8"></polygon>
                <path d="M965.7,0.7 C969.3,0.4 960.7,0.2 964.6,0 C958.6,0.1 953.6,0.3 949,0.5 C953.8,0.4 959,0.4 965.7,0.7 Z" id="Shape"></path>
                <path d="M941.2,0.8 C943.6,0.7 946.2,0.6 948.9,0.5 C946.3,0.6 943.8,0.7 941.2,0.8 Z" id="Shape"></path>
                <path d="M1000.5,1.4 C999.8,1.3 998.5,1.1 993.7,1 L997.1,1.4 C998.1,1.4 999.3,1.4 1000.5,1.4 Z" id="Shape"></path>
                <path d="M997.2,1.4 L997.1,1.4 C993.4,1.4 990.8,1.4 989.7,1.4 C990.7,1.4 992.9,1.4 997.2,1.4 Z" id="Shape"></path>
                <path d="M1001.4,1.4 C1001.1,1.4 1000.9,1.4 1000.5,1.4 C1000.8,1.5 1001,1.5 1001.4,1.4 Z" id="Shape"></path>
                <path d="M1038,1.9 C1032.9,2.1 1022.3,2.4 1032.6,2.8 C1036.2,2.5 1030.3,2.3 1038,1.9 Z" id="Shape"></path>
                <path d="M1005.6,1.9 L1014.8,2 C1014.6,1.9 1013,1.7 1015.5,1.6 L1005.6,1.9 Z" id="Shape"></path>
                <polygon id="Shape" points="1001.1 2.1 1005.6 1.9 1002.2 1.9"></polygon>
                <path d="M957,1.2 C953,1.4 948.7,1.4 943.8,1.4 C949.1,1.5 954.5,1.5 959.7,1.5 C960.3,1.5 962.6,1.2 957,1.2 Z" id="Shape"></path>
                <path d="M976.5,1.4 C976.2,1.4 975.9,1.4 975.6,1.4 C976.2,1.4 976.6,1.4 976.5,1.4 Z" id="Shape"></path>
                <path d="M895.4,1.5 C895.7,1.5 895.9,1.6 896.2,1.6 C896.3,1.6 896.3,1.6 896.4,1.5 L895.4,1.5 Z" id="Shape"></path>
                <path d="M960.5,1.7 C964.5,1.8 966.8,1.7 969.1,1.5 C966.1,1.5 963,1.6 959.6,1.6 C959.3,1.7 959.2,1.7 960.5,1.7 Z" id="Shape"></path>
                <path d="M927.7,1 C929.8,1.1 932.1,1.2 934.5,1.2 C932.6,1.1 928.5,0.9 927.7,1 Z" id="Shape"></path>
                <path d="M974.3,1.3 C974.5,1.3 974.7,1.3 974.9,1.3 C973.6,1.2 973.8,1.2 974.3,1.3 Z" id="Shape"></path>
                <path d="M974.3,1.3 C972.3,1.4 970.7,1.5 969.1,1.6 C971.5,1.6 973.7,1.5 975.7,1.5 C975.2,1.4 974.7,1.3 974.3,1.3 Z" id="Shape"></path>
                <path d="M880.8,4.2 C881.5,3.8 891.9,3.4 900.9,3.9 C909.7,3.6 904,2.3 896.2,1.6 C895.9,1.8 895.9,1.9 886.8,2.2 C890,2.4 907,2.7 899.3,3.1 C887.3,3.3 889.4,3 883.6,2.8 C888.6,3.3 868.3,3.5 870.9,4.2 L881.5,3.9 C881.7,3.9 877.8,4.1 880.8,4.2 Z" id="Shape"></path>
                <path d="M913.5,1.6 L917.2,1.6 C912.9,1.5 909.9,1.4 904.3,1.1 C898.1,1.3 896.8,1.4 896.4,1.6 L914.8,1.7 L913.5,1.6 Z" id="Shape"></path>
                <path d="M934,1.5 C931.1,1.9 922.1,2.1 927.6,2.6 C938.6,2.6 935.3,2.2 941.8,2.1 C924.1,2.2 946.9,1.9 934.1,1.6 C937.6,1.5 940.7,1.5 943.7,1.5 C940.5,1.4 937.4,1.4 934.5,1.3 C934.7,1.3 934.8,1.3 934.9,1.3 L935,1.3 C935.8,1.4 936,1.4 935.2,1.4 C935.1,1.4 934.9,1.4 934.8,1.4 C934.7,1.4 934.4,1.5 934,1.5 C928.9,1.4 933.2,1.4 934.8,1.3 C934.9,1.3 935,1.3 935,1.2 C935,1.2 935,1.2 934.9,1.2 L917.2,1.4 C921,1.6 925.7,1.6 934,1.5 Z" id="Shape"></path>
                <path d="M1023.1,3.7 C1022.5,3.7 1022.6,3.6 1022.5,3.6 C1021.4,3.7 1020.9,3.7 1023.1,3.7 Z" id="Shape"></path>
                <path d="M1015.8,3.4 C1017.1,3.3 1018.2,3.2 1022.4,3.2 C1026,3.3 1022.4,3.4 1022.6,3.5 C1025.1,3.4 1031.4,3.2 1023.5,3 L1022.2,3.1 C1015.1,3 1005.9,2.4 1007.1,2.4 C1009.2,2.8 1011,3.1 1015.8,3.4 Z" id="Shape"></path>
                <path d="M974.4,2.6 L959.6,2.8 L967.1,3.2 L966.7,3 C975.2,3.1 973.4,2.8 974.4,2.6 Z" id="Shape"></path>
                <polygon id="Shape" points="893.7 1.3 895.7 0.8 887.2 1.5"></polygon>
                <polygon id="Shape" points="874.5 1.3 875.2 0.9 870.2 1.2"></polygon>
                <path d="M144.1,70.2 L148.4,70.1 C146.4,70.1 145.1,70.2 144.1,70.2 Z" id="Shape"></path>
                <path d="M112.7,70.2 L111.9,70.4 C113.3,70.3 113.9,70.2 112.7,70.2 Z" id="Shape"></path>
                <path d="M403,1.4 C396.7,1 389.6,0.5 390.4,0.9 L392.3,1.3 C396.7,1.2 400.1,1.3 403,1.4 Z" id="Shape"></path>
                <path d="M80,4 C80.6,4 81.2,4.1 81.8,4.1 C83.3,4 84.8,3.8 86.1,3.7 C84.3,3.8 82.2,3.9 80,4 Z" id="Shape"></path>
                <path d="M75.6,5.7 L67.3,5.4 C69.1,5.6 71.8,5.7 75.6,5.7 Z" id="Shape"></path>
                <path d="M315.7,69.7 L320.8,69.3 C312.9,69.3 316.4,69.5 315.7,69.7 Z" id="Shape"></path>
                <path d="M677.9,1.5 C672.4,1.3 668.1,1.3 664.3,1.2 C670.8,1.5 676.1,1.8 677.9,1.5 Z" id="Shape"></path>
                <path d="M131.7,74.8 C134.4,74.7 135.5,74.6 135.4,74.5 C132.7,74.6 131.2,74.7 131.7,74.8 Z" id="Shape"></path>
                <path d="M648.5,1.2 C649.5,1.2 650.4,1.3 651.4,1.3 C655.4,1.2 659.4,1.2 664.3,1.2 C659.4,1 653.9,0.9 648.5,1.2 Z" id="Shape"></path>
                <path d="M938.3,70.1 C938.8,70.1 939.3,70.1 939.7,70.2 C939.8,70.1 939.2,70.1 938.3,70.1 Z" id="Shape"></path>
                <path d="M1119.7,74.5 C1117.9,74.5 1115,74.5 1112.3,74.5 C1113.5,74.5 1115.8,74.5 1119.7,74.5 Z" id="Shape"></path>
                <path d="M797.3,1.1 C801.3,1.1 797.9,1.1 797.3,1.1 Z" id="Shape"></path>
                <path d="M817.1,2.8 C816.2,2.8 815.6,2.9 815.5,3 C815.8,3 816.4,2.9 817.1,2.8 Z" id="Shape"></path>
                <path d="M607.9,3.9 C607.8,3.9 607.7,3.9 607.5,3.9 C608.8,4 608.6,4 607.9,3.9 Z" id="Shape"></path>
                <path d="M803.4,1.3 C801.9,1.2 800.1,1.2 798.2,1.2 C799,1.2 800.6,1.3 803.4,1.3 Z" id="Shape"></path>
                <path d="M802.6,1.1 C804,1.1 805.1,1.1 806.2,1.1 C806.7,1.1 806.2,1 802.6,1.1 Z" id="Shape"></path>
                <path d="M791.6,1.2 C793.9,1.2 796.1,1.2 798.2,1.2 C797.4,1.2 797.1,1.1 797.3,1.1 C796.1,1.1 794.4,1.1 791.6,1.2 Z" id="Shape"></path>
                <path d="M604.7,71.3 C605,71.3 605.3,71.3 605.6,71.3 C609.7,71.1 607.9,71.2 604.7,71.3 Z" id="Shape"></path>
                <path d="M297,5.9 C297.2,5.9 297.3,5.9 297.5,5.9 C297.3,5.9 297.1,5.9 296.9,5.9 L297,5.9 Z" id="Shape"></path>
                <path d="M282.4,6.2 C288.6,5.7 292.2,5.7 296.9,5.8 L292.1,4.5 L282.4,6.2 Z" id="Shape"></path>
                <path d="M219.3,70.1 L209,69.7 C221.4,69.1 230.4,69.3 220.7,68.7 C219.2,70.1 180.8,68.8 179.3,70.2 L172.5,69.9 C174.4,69.9 174.8,69.8 176.7,69.8 C163.5,69.1 166.9,70.8 150,70.6 C144.1,70.5 140,70.3 144,70.1 L130.8,70.4 C127,70.4 127.9,70.1 131.7,70.2 L111.6,70.3 L111.7,70.3 C108.8,70.5 102.3,70.8 99.2,71 C94.1,70.8 101.8,70.9 100.5,70.7 L89.4,71 C84.9,70.6 94.1,70.3 101.8,70.4 C91.4,69 92.6,70.7 70.1,69.9 L80.6,69.7 C73.8,68.9 65.6,69.2 53.7,68.7 C56.5,69 77.5,69.9 65.4,70.2 C62,70.1 57.5,70 51,70.3 C50.9,69.8 44.6,69.9 36.6,70 L37.1,69.4 C28.5,69.6 29.2,69.9 24.1,70.2 C14.5,70.1 12.5,69.6 10.3,69.2 C8.4,69.2 7.1,69.2 6.3,69.2 C5.4,69.2 5.6,69.2 5.5,69.3 C5.5,69.3 5.5,69.3 5.5,69.4 C5.5,69.4 5.5,69.4 5.6,69.4 C5.7,69.4 5.8,69.4 5.9,69.4 C6.4,69.4 6.9,69.5 7.5,69.6 C8.6,69.7 9.7,69.8 9.3,69.9 C9.1,69.9 8.6,70 7.5,70 C6.8,70 5.8,70 4.3,70.1 C4.2,70.1 4,70.1 3.9,70.1 C3.9,69.8 3.9,69.5 3.9,69.2 L3.9,68.8 C3.9,68.5 3.9,68.3 3.9,68 C3.9,66.6 3.9,65.1 3.9,63.7 C3.9,60.9 3.9,58.2 3.8,55.4 C3.7,49.8 3.6,43.8 3.4,36.4 C3.6,27.5 3.8,38 4,34.8 L3.5,26.9 C3.5,25 3.7,25.6 3.7,25.9 C3.5,19.2 3.1,25.3 2.9,14.9 C2.7,14.3 2.7,12.9 2.7,11 C2.7,10 2.8,8.9 2.8,7.7 C2.8,7 2.9,6.1 2.9,5.3 C3.5,5.3 4,5.4 4.6,5.4 L5,5.4 L5.5,5.4 C6,5.4 6.5,5.4 7,5.4 C9,5.5 11,5.5 13,5.6 C17.1,5.7 21.2,5.6 24.8,5.4 C28,5.6 23.3,5.8 24.2,6 C42,5.5 39.5,5.6 54.1,4.9 L66.6,5.3 C57.4,4.8 69.1,4.3 79.4,3.8 C76.1,3.6 73.4,3.4 71.5,3.3 L87.9,3 C89.9,3.1 88.2,3.3 85.5,3.6 C86.6,3.5 87.7,3.5 88.5,3.4 C94.4,3.6 91.3,4 87.1,4.4 C85.1,4.3 83.1,4.1 81.2,4 C77.2,4.4 73.4,4.8 74.2,5.2 C75.3,5.1 77.3,5.1 79.6,5 C78.5,5.1 77.9,5.2 78.4,5.3 C79,5.4 80.7,5.2 83.3,5.1 L87,5.8 L87.9,5.5 L110,6 C125.3,5.3 138.6,4.2 163,3.9 C157,4.4 161.7,4.8 161.4,5.4 C154.8,4.7 142.6,5.7 130,5.5 C136.6,5.6 135.1,5.9 133.5,6 L156,5.4 C155.5,5.9 160.8,5.8 166.6,6 C162.2,5 183.4,5.3 192.5,5 C193.1,5.3 190.9,5.7 179.7,5.6 C192,6.4 195.6,4.4 207.7,5.1 C205,5.1 203.5,5.1 202.4,5.2 C208.8,4.9 224.3,5.1 220.7,5.4 L218,5.4 C236.1,5.5 273,5.4 275.7,4.6 C275.9,4.7 273.3,5.6 272.2,5.8 L304.5,2.9 C301.7,3.6 312.6,5.4 297.6,5.8 C301.9,5.9 307.2,6 316.3,5.8 C313.4,5.7 309,4.7 313,4.7 C324,5.5 320.6,5.1 334.2,5.8 C329.8,5.6 334.7,4.5 341.6,4.5 C340.5,4.7 342.2,5.6 339.6,5.7 L356.9,4.6 C352.6,4.8 356.1,5.6 360,5.9 C358.2,5.7 375,5.9 379.6,5.8 L372.3,5.5 C391.9,5.7 391.6,3.9 411,4 C408.7,4.2 405.2,5.4 415.1,5.6 C419.6,5 435.1,2.8 452.3,2.4 L455.6,2.7 L468.8,2.3 C460.6,3.2 437.6,5 425,5.7 C432.3,6 427,6.1 438,6.1 C441.9,6.4 432,6.6 428.8,6.6 L454.3,6.8 C453.2,6.1 473.8,6.1 472.8,5.6 L445.1,6.3 C444,5.6 461.1,4.4 479.2,4.5 C483.8,4.8 475.8,5.7 476.1,5.9 C478.4,5.7 493.3,5.5 494.9,5.6 L487.2,6 C497.3,6.3 503.6,5.1 515.7,5.8 C519.9,5.8 528.2,6.7 528.9,6.3 C522.1,5.5 520.8,3.2 525.3,2.6 C526.8,2.7 547.2,3.3 552,3.7 C558.9,4.3 541.7,5.1 547.5,5.7 C547.8,5.5 551.5,5.3 553.1,5.2 C557.5,5.4 551.3,5.8 560.8,5.7 C562.4,5 580.2,5.8 565.3,5.1 C574.6,4.9 575.2,5.2 586.1,5.2 C582.6,4.8 595.9,3.7 605.3,3.5 C604.7,3.7 606.8,3.9 607.9,4 C627,4.1 637.3,4.4 655.1,4.4 C656.7,4.6 665.3,4.8 661.7,5.1 C664.3,5 666.6,4.7 672.1,4.7 C682.7,5.3 659.9,4.8 668,5.5 C668.7,5.1 682.2,5 690,4.7 C687.6,4.1 671.9,4.6 664.1,4.8 C664.1,4 677.7,3.1 696.3,2.7 C711.1,2.5 702.7,3.2 705.3,3.1 C733.1,3.2 729,1.6 752,2.2 C761.2,2.7 752.4,3.3 754.4,3.7 C742.3,3.9 735.9,3.4 727.7,3.4 L737.8,3.7 C734,3.9 725.9,4 721.5,3.9 C729.2,4.4 768.4,4 789.9,4.4 C793.7,4.2 800.3,4 797.2,3.8 L790.4,3.9 C784.2,3.5 803.2,3.3 794.6,3.1 C803.7,2.8 813.9,2.3 826.7,2.6 L829.1,3.2 C828.8,3 820.7,2.8 817.1,3 C822.4,2.7 836.7,3.8 842.6,3 L833.6,2.6 C842.7,2.3 854,1.6 865.4,1.8 C860.2,1.2 862.8,1.9 854.7,1.2 C861.7,2.1 825.7,1.2 836.9,2.1 C828.6,1.3 822.6,1.8 811.8,1.1 C812.1,1.3 815.6,1.5 806.1,1.4 C805.7,1.5 804.7,1.5 804,1.6 C803.7,1.6 803.6,1.6 803.4,1.6 C803.6,1.6 803.7,1.6 803.9,1.6 C803.5,1.6 803.4,1.6 804.1,1.6 C806.4,1.7 808.2,1.8 809,1.9 C804.3,2.4 789.1,2.3 784,2.6 C778.3,2.5 786.4,2.4 783.3,2.2 L775.6,2.6 C774.8,2.2 760.6,1.9 773.9,1.6 L761.9,1.6 C754.8,1.3 745.1,1.2 739.1,1.4 C733.4,1.3 724.8,1.9 729.7,1.5 L710.9,1.8 L710.7,1.7 C692.1,1.6 672.5,2.4 651.3,1.6 C645.1,1.7 638.6,1.9 628.1,1.7 L626.1,1.3 C618.1,1.4 602,0.9 598.6,1.3 C589.9,0.3 559.7,1.1 545.6,0.9 L545.1,1.4 C535.4,1.4 526.1,1.5 514,1.7 L514.7,2.1 C504.3,2.5 488,1.8 471.6,1.8 C472.7,1.6 476.9,1.7 479.8,1.8 C460.2,0.8 438.4,2.5 420.6,1.8 C416.2,2 412.9,1.9 409.8,1.8 C410.2,1.8 410.6,1.8 410.9,1.8 C410.4,1.8 409.8,1.8 409.1,1.8 C407.1,1.7 405.1,1.6 402.9,1.6 C404.8,1.7 406.5,1.8 408.1,1.8 C404.7,1.8 399.5,1.9 394.4,2 L392.2,1.5 C391.8,1.5 391.5,1.5 391,1.5 C386,1.3 387,1.7 389.6,2.1 C387,2.2 384.7,2.3 382.9,2.4 C378.8,1.6 369.6,2.7 364,1.8 C360.6,2.2 338.4,2.1 335.7,3 C335.5,2.9 334,2.8 336.8,2.8 C331.1,2.7 325.5,2.6 320.4,2.8 L318,2.2 L305.6,3 C298.1,2.6 295,2.4 302.4,1.9 C284.4,2.6 287.8,2.2 272.4,2.9 L273.1,2.5 C267.6,2.5 258.8,3 255.5,2.7 C243.2,1.9 194.8,2.6 163.3,1.9 C169.4,3.1 148.7,1.4 147.4,2.3 C145.6,2 141.2,1.9 146.3,1.6 C130.2,1.9 122.2,1.2 111.1,1.9 C109.3,1.6 114.5,1.5 112.9,1.3 C111.6,1.4 107.8,1.5 106.1,1.4 C104.5,1.2 108.5,1.2 111,1 C94.6,1 92.9,1.9 91.7,2.7 C83.4,2.3 79.2,2.4 73.2,2.9 C70.3,2.6 65.5,2.4 75.7,2.3 C70,2.3 40.6,1.9 40.1,2.6 C38.3,2.4 32.1,2.6 30.6,2.6 C24.2,2.6 20.7,2.6 17.2,2.5 C13.6,2.5 10,2.5 3.4,2.5 L7.5,2.6 C5.9,2.9 3.4,3 1,3 C1,4.2 1,5.4 1,6.7 C1,7.8 1,9 0.9,10.3 C0.9,12.8 0.8,15.6 0.8,18.8 L0.7,18.5 C0.1,41.9 1,28.6 0.3,51.6 L0.8,50.3 C1.2,51.1 1.2,54 1.1,58 C1,60 1,62.3 0.9,64.7 C0.9,65.9 0.8,67.2 0.8,68.5 C0.8,70.1 0.7,71.8 0.7,73.5 C6.3,73.6 9.7,73.6 13.5,73.5 L8.7,73.2 C16,72.8 29.1,74.6 36.5,74.7 C38.1,74.8 34,74.8 31.7,74.9 C50.9,75.5 34.2,74.3 48.5,74.1 C51.1,74.4 45.1,75 54.7,75 C59.5,75.3 82.7,73.9 95.8,74.5 C92.9,74.2 90,74 96.7,73.8 C106.9,73.7 124.3,74.8 133.5,74 C134.8,74.1 135.3,74.1 135.3,74.2 C143.1,74 160.6,73.8 165.3,73.4 C172.5,75.1 213.8,72.6 213.6,74.1 L237.6,74 L237,74.2 C252.3,74.3 257.7,73.9 263.1,73.6 C266.6,73.7 264.1,73.8 263.8,73.9 C286.2,74.2 288.4,74.1 307.2,73.4 L309.2,73.9 C314.3,73.6 341.6,74.7 363.5,74.1 C363.3,74.2 362.8,74.3 361.1,74.3 C385.8,73.7 420.2,75.7 429.3,73.9 L445.6,73.5 C424.5,73.4 448.7,72.7 440.1,72.4 C448.4,72.3 461.5,72.9 451.4,73 L449.8,72.9 C446.1,73.8 476,73.2 475.4,73.9 C516.9,73.9 557.4,74.4 596.2,74.4 L591.7,73.7 L605.3,73.7 C608.9,73.9 610.1,74.3 600.4,74.2 C602.9,74.4 607,74.3 610.5,74.2 C614,74 616.8,73.8 616.9,73.7 C635.8,74 609.5,74.6 615.3,74.6 L623.2,74.5 L621.4,74.4 C627.8,74.1 628.4,73.8 640,73.8 C647.4,73.9 643.8,74.3 646.7,74.3 C646.7,74.3 646.9,74.3 647.6,74.4 C648.3,74.4 649.4,74.4 651.1,74.4 L668.2,74.5 L661.4,73.9 C669,73.6 677.5,73.9 669.6,73.3 C681.2,74.3 733.3,73.7 740.4,74 C751,73.6 761.5,73.6 774.4,73.6 C771.2,73.5 769.2,72.8 780.4,72.9 C776.3,74.2 800.9,73.5 809.9,74.4 C801.8,73.8 841.7,74.2 829,73.3 C838.3,73.4 829.6,73.8 836.6,74.1 C858.8,73.6 885.6,74.4 913,74.3 C913.4,74.1 908.8,73.9 914.7,73.6 L929.2,74.5 C934.6,74.4 934.2,73.5 944.1,74.1 C942.7,74 940.6,73.7 944.2,73.7 C998,74.6 1054.1,73 1108.8,74.6 C1101.4,74.3 1106.3,74.2 1112,74.2 C1108.3,74.1 1112.1,73.8 1111.4,73.5 L1134.3,74.2 C1138.5,73.5 1158.8,74.2 1161.2,73.5 L1154,73.6 C1163.6,72.9 1140.5,71.9 1141.9,71 C1131.1,71.8 1113.5,69.7 1095.8,71 C1091.9,70.8 1099.1,70.7 1097,70.5 C1092.5,70.9 1087.1,71 1077.1,70.8 L1078.2,70.7 C1050,70.8 1037.9,70.4 1006.2,70.1 L1008.5,70.6 C1001.7,70.5 1000.3,70.4 997.1,70.3 C989.3,71 1016.2,70.3 1009.1,71.1 C1000.1,70.1 961.1,71.1 955,70 C944.5,70 958.1,70.5 947.6,70.5 L944.8,70.2 L942.2,70.6 C935.3,70.5 931.9,70.2 931.6,69.9 C933.3,69.9 936.3,69.8 938.1,69.8 C929.2,69.5 913,69.9 909.9,69.8 L920,70 C891.4,70.3 856.5,69.9 828.9,70.5 L831,70.7 C809.9,71.1 814.1,70.5 791,70.6 L791.8,70.5 C787.2,70.7 781,70.8 774.6,70.8 C780.4,70.5 763.6,70.3 771.3,70 C748.4,70.4 760,70.3 744.9,71.2 L741.4,70.8 C736.3,71.1 735.8,71.3 724.3,71.4 C733.8,71.1 716.9,70.8 727.5,70.4 C703.2,69.6 691.5,71.2 680.3,70 C669.2,71 701.3,70.6 695.1,70.8 C700.3,71.1 685.9,71.6 678.3,71.5 C670.5,71.5 665.1,70.2 645.6,70.2 C647.5,70.2 647.7,70.1 649.6,70.1 C642.3,69.8 635.3,70.5 626.4,70 C621.4,70.6 614.8,70 613.3,70.8 L631.2,70.6 C621.1,70.8 611.6,71.7 594.8,71.3 C596.1,71.1 601.1,70.9 604.5,70.8 C599.6,70.6 595.1,71 590,70.7 C591.4,69.9 611.7,70.5 622.6,69.9 C617.4,69.6 602.1,70.5 607.5,69.6 C599.7,70.7 588.3,69.5 575.1,70.3 L576,69.8 C573.9,69.9 569.6,70.1 565.7,70.1 L572.7,69.5 C562,70 552.1,69 541.8,69.3 C563.3,69.3 546.6,69.9 555.7,70.2 C529.2,70.8 540.5,69 510.8,69.2 C514.8,69.1 525.9,69.5 519.6,69.7 C514,69.6 506.5,69.4 503,69.2 C483.4,69.3 506,69.7 497.7,70 C491,69.4 488.1,70.2 479.4,70.4 L479.3,69.9 C456.9,69.6 473.4,70.9 453.2,70.5 L461.7,69.8 L451.2,70 L453.4,69.5 C442,69.9 438.4,69.8 427.2,69.6 C429.8,69.9 425.7,70.5 415.8,70.5 C409,70.2 419.6,70 405.5,70.1 C408.7,69.8 412.1,69.4 418.3,69.9 C418.9,69.7 421.4,69.6 422.1,69.4 C414.8,69.1 403.8,69.3 398.7,69.3 C400.7,69.3 403,69.3 404.2,69.4 L383.8,70.1 C380.6,69.9 383.1,69.8 385.7,69.6 C381.6,69.7 378.7,69.9 372.7,69.9 C374.3,69.5 373.9,69.1 382.5,68.9 L363.1,69.3 C361.8,69.1 353.1,68.8 355.7,68.7 C344.9,68.5 329.3,69.5 315,69.2 C314.3,69.3 312.8,69.3 309.7,69.4 C296.3,69.3 284.4,68.8 268.5,69.4 L259.5,68.7 C247.1,68.9 271.7,69.6 251,69.9 C236.3,70.1 245.5,69.3 240.4,69.1 C233.1,69.5 220.4,70.2 206.9,69.6 C211.7,70 215.2,70.1 219.3,70.1 Z M65.8,70.4 C68.8,70.3 74.7,70 76.9,70.3 C73.5,70.8 70.9,70.5 65.8,70.4 Z M102.6,4.9 C100.4,5.1 97,5 93.1,4.8 C95.9,4.7 99.1,4.8 102.6,4.9 Z M752.6,1.5 C752.5,1.5 752.4,1.5 752.3,1.5 C745.7,1.4 748,1.4 752.6,1.5 Z M766.4,1.7 C767.8,1.6 767.7,1.6 767.1,1.5 C766.1,1.6 763,1.6 759.5,1.6 C760.5,1.8 762.3,1.8 766.4,1.7 Z M648.2,74.5 L645.5,74.4 C651.6,74.2 649.9,74.4 648.2,74.5 Z" id="Shape"></path>
                <path d="M76.2,5.5 C75.4,5.4 75.1,5.3 74.9,5.2 C73.7,5.4 73.7,5.5 76.2,5.5 Z" id="Shape"></path>
                <path d="M314.8,69.8 L315.3,69.8 C315.6,69.8 315.7,69.7 315.8,69.7 L314.8,69.8 Z" id="Shape"></path>
                <path d="M553,5.8 C550.2,5.7 548.6,5.6 547.5,5.6 C547.4,5.7 548.7,5.8 553,5.8 Z" id="Shape"></path>
                <path d="M839.4,0.9 L830.6,1 C834.9,1 836.4,1.1 838.5,1.2 C838.3,1.1 836.7,0.9 839.4,0.9 Z" id="Shape"></path>
                <path d="M916,3.9 C917.3,3.8 918.7,3.9 920,3.8 L919.6,3.6 C914.2,3.6 910.3,3.8 916,3.9 Z" id="Shape"></path>
                <path d="M847.6,2.5 C848.3,2.9 853.8,2.8 860,2.7 C859.6,2.7 859.3,2.7 858.9,2.7 C860.7,2.1 854.2,2.3 847.6,2.5 Z" id="Shape"></path>
                <path d="M861.4,2.7 C863.3,2.7 865.3,2.7 867.1,2.7 C867.9,2.5 864.8,2.6 861.4,2.7 Z" id="Shape"></path>
                <path d="M783.9,1.5 C786.8,1.6 785.7,1 787.4,1.1 C790.7,0.6 767.8,1.7 783.9,1.5 Z" id="Shape"></path>
                <polygon id="Shape" points="852.6 3.9 850.4 3.4 846.9 3.8"></polygon>
                <path d="M803.8,3.5 L813.7,3.6 C813.6,3.5 814.8,3.5 816.3,3.4 C810.2,3.4 803.6,3.3 803.8,3.5 Z" id="Shape"></path>
                <path d="M816.3,3.5 C819.5,3.5 822.5,3.5 824.2,3.4 C822.5,3.4 818.9,3.4 816.3,3.5 Z" id="Shape"></path>
                <polygon id="Shape" points="839.1 4 836.2 3.9 829.2 3.9"></polygon>
                <path d="M697.6,3.4 L686.8,3.5 C685.7,3.7 688.6,3.8 692.7,3.7 C695.3,3.6 699.3,3.6 697.6,3.4 Z" id="Shape"></path>
                <path d="M730.2,4.8 C727.3,4.7 727.1,4.6 725.4,4.4 L725.1,5 L730.2,4.8 Z" id="Shape"></path>
                <path d="M698.8,4.9 C697.7,5.1 683.2,5.4 696.8,5.4 C697.9,5.2 708.7,5 698.8,4.9 Z" id="Shape"></path>
                <polygon id="Shape" points="536.3 4.1 539.1 4.1 538.7 3.1"></polygon>
                <path d="M393.2,6.6 C406,6.8 396.2,6 407.8,6.3 C410.8,6.1 398.4,6.1 401.4,5.8 C393.7,6 389.6,5.9 393.2,6.6 Z" id="Shape"></path>
                <path d="M401.4,5.8 C402.6,5.8 403.9,5.7 405.3,5.6 C403.1,5.7 402,5.7 401.4,5.8 Z" id="Shape"></path>
                <polygon id="Shape" points="1149.8 75 1158 75.2 1152.7 74.9"></polygon>
                <path d="M1165.5,74.3 L1167.4,74.9 L1172.3,74.3 C1170.5,74.4 1166.9,74.4 1165.5,74.3 Z" id="Shape"></path>
                <path d="M43,69.1 L42.4,69.3 C43.7,69.5 45.6,69.5 49.4,69.5 L43,69.1 Z" id="Shape"></path>
                <polygon id="Shape" points="154.4 69.6 152.5 69.6 156.1 70.1"></polygon>
                <path d="M247.9,68.8 C244.1,68.8 239.6,68.9 235.8,68.9 C244.1,68.8 249,69.6 247.9,68.8 Z" id="Shape"></path>
            </g>
        </g>
    </g>
</svg>