<?xml version="1.0" encoding="utf-8"?>
<!-- Generator: Adobe Illustrator 22.1.0, SVG Export Plug-In . SVG Version: 6.00 Build 0)  -->
<svg version="1.1" id="Capa_1" xmlns="http://www.w3.org/2000/svg" xmlns:xlink="http://www.w3.org/1999/xlink" x="0px" y="0px"
	 viewBox="0 0 190 60" style="enable-background:new 0 0 190 60;" xml:space="preserve">
<style type="text/css">
	.st0{fill:#313134;}
</style>
<g>
	<g>
		<path class="st0" d="M151,38.2c0,0-0.1,1.2,0.6,1.4s7.1-0.8,11.9-1.2c5-0.5,9.4,0,10.6,0.8c0.6,0.4,0.3,1,0.5,0.9
			c0.3-0.1,0.3-1.1-0.1-1.4c-0.6-0.5-1.9-2-10.6-1.2c0,0-10.6,1.2-12.2,1.4C151.1,38.8,151.3,37.7,151,38.2z"/>
	</g>
	<g>
		<path class="st0" d="M19.8,20.1c-1.3,0.2-2.5,0.5-3.7,0.7c-0.7,0.1-1.5,0.2-2.2,0.4c-0.3,0-0.6,0.1-1,0.1c-0.3,0-0.6,0.1-0.9,0.1
			c-0.2,0-0.3-0.1-0.4-0.3c0.1-0.1,0.2-0.2,0.4-0.2c0.5-0.1,0.9-0.2,1.3-0.3c1-0.2,2-0.5,3-0.7c1.5-0.4,3-0.8,4.5-1.1
			c0.9-0.2,1.8-0.4,2.7-0.5c0.6-0.1,1.2-0.2,1.8-0.3c1.2-0.1,2.3-0.2,3.4-0.2c0.9,0,1.9,0,2.8,0c1.1,0.1,2.1,0.3,3.1,0.7
			c0.4,0.1,0.7,0.3,1,0.5c0.4,0.3,0.7,0.7,0.8,1.2c0,0.2-0.1,0.4-0.3,0.5c-0.1-0.1-0.1-0.3-0.1-0.4c0-0.1,0-0.2,0-0.4
			c-0.2-0.2-0.6-0.3-0.9-0.4c-0.6-0.2-1.2-0.3-1.9-0.4c-1.1-0.1-2.1-0.1-3.2-0.1c-0.4,0-0.8,0-1.2,0c-0.9,0-1.8,0.1-2.7,0.2
			c-0.8,0.1-1.6,0.1-2.4,0.2c-0.1,0-0.2,0.1-0.3,0.1c-0.1,0.4-0.2,0.7-0.2,1c-0.2,1.1-0.3,2.1-0.5,3.2c-0.1,0.8-0.3,1.7-0.4,2.5
			c-0.1,0.5-0.1,1-0.2,1.5c-0.1,0.9-0.3,1.8-0.5,2.6c-0.1,0.7-0.2,1.4-0.3,2.1c0,0.2,0,0.5-0.1,0.8c-0.1,1-0.2,2-0.1,3
			c0,0.5,0,0.9,0,1.4c0,0.5,0,0.9,0,1.4s0.1,0.9,0.2,1.4c0,0,0,0,0,0c-0.3-0.2-0.5-0.4-0.7-0.6c-0.4-0.6-0.7-1.2-0.9-1.8
			c-0.1-0.4-0.2-0.8-0.3-1.1c-0.2-1.3-0.2-2.6-0.2-3.9c0-0.9,0.1-1.9,0.2-2.8c0.1-0.9,0.2-1.8,0.4-2.7c0-0.3,0.1-0.7,0.2-1
			c0.2-1.3,0.5-2.5,0.8-3.8c0.1-0.6,0.2-1.3,0.4-1.9c0.1-0.3,0.2-0.6,0.4-1.1C21.1,19.9,20.4,20,19.8,20.1z"/>
		<path class="st0" d="M28.1,35.6c-0.2-0.6-0.3-1.2-0.4-1.8c0-0.3-0.1-0.6-0.1-0.9c-0.1,0.3-0.3,0.6-0.4,0.9
			c-0.1,0.3-0.3,0.6-0.5,0.8c-0.1,0.2-0.4,0.4-0.6,0.6c-0.6,0.1-1.1-0.1-1.5-0.5c-0.3-0.2-0.5-0.5-0.5-0.9c-0.1-0.3-0.1-0.6-0.1-0.9
			c0-1.2,0.1-2.3,0.5-3.4c0.1-0.6,0.4-1.2,0.6-1.8c0-0.1,0.1-0.1,0.1-0.2c0.1,0,0.2,0,0.4,0c0.2,0.1,0.3,0.1,0.6,0.4
			c0,0.3,0,0.6,0,0.9c-0.1,0.8-0.3,1.6-0.5,2.4c0,0.3-0.1,0.6-0.1,0.9c-0.1,0.5-0.1,1-0.1,1.4c0,0.4,0,0.7,0.1,1.1
			c0.1,0.1,0.2,0,0.2,0c0.4-0.2,0.6-0.5,0.8-0.8c0.4-0.6,0.7-1.2,1-1.9c0-0.1,0.1-0.1,0.1-0.2c0.2-0.5,0.4-0.9,0.5-1.5
			c0.2-1.1,0.5-2.2,1-3.2c0-0.1,0.1-0.2,0.2-0.3c0-0.1,0.1-0.1,0.2-0.2c0.4,0.1,0.8,0.2,1.1,0.5c0.1,0.2,0.1,0.4,0.1,0.6
			c-0.1,0.6-0.1,1.2-0.2,1.8c-0.1,0.8-0.2,1.6-0.2,2.5c0,0.5-0.1,1.1-0.1,1.6c0,0.4,0,0.8-0.1,1.2c0,0.6,0.1,1.1,0.1,1.7
			c0,0.2,0.1,0.5,0.1,0.7c0,0.2,0.1,0.5,0.1,0.7C29.1,37.3,28.5,36.6,28.1,35.6z M29.9,22.7c0,0.4-0.2,0.6-0.4,0.8
			c-0.6,0.6-1.2,1.1-1.8,1.6c-0.4,0.3-0.7,0.5-1.2,0.5c-0.1,0-0.1-0.1-0.1-0.2c0.1-0.5,0.2-0.9,0.5-1.3c0.4-0.5,0.8-1.1,1.3-1.5
			c0.2-0.2,0.4-0.4,0.6-0.6c0.1-0.1,0.2-0.1,0.4-0.2C29.7,22.1,29.8,22.4,29.9,22.7z"/>
		<path class="st0" d="M45.9,38.3c0.1,0,0.2,0.1,0.3,0.1c-0.2,0.1-0.4,0-0.6,0c-0.5-0.2-0.9-0.6-1.3-1.1c-0.4-0.5-0.7-1.1-0.9-1.8
			c-0.4-1.1-0.7-2.2-0.8-3.4c-0.1-0.7-0.1-1.3-0.1-2c0-1.4,0-2.7,0.1-4.1c0.1-1,0.2-2,0.4-3.1c0.2-0.8,0.3-1.6,0.5-2.4
			c0-0.1,0.1-0.3,0.1-0.5c0-0.1,0-0.2,0.1-0.4c-0.1,0.1-0.2,0.1-0.4,0.2c-0.1,0-0.2,0.1-0.3,0.2c-0.5,0.3-0.9,0.7-1.3,1
			c-0.2,0.2-0.5,0.4-0.6,0.7c0,0.2,0,0.4,0.1,0.6c-0.1,0-0.2,0-0.2,0c-0.1-0.1-0.2-0.1-0.3-0.2c-0.2-0.2-0.3-0.5-0.1-0.8
			c0.1-0.2,0.3-0.5,0.5-0.6c0.7-0.8,1.6-1.5,2.6-2c0.1-0.1,0.3-0.2,0.5-0.2c0.2-0.2,0.2-0.5,0.5-0.6c0.2,0,0.4,0,0.6,0.1
			c0.6-0.1,1.1-0.3,1.6-0.4c0.8-0.2,1.6-0.2,2.4-0.2c0.6,0,1.1,0.2,1.6,0.4c0.8,0.4,1.4,0.8,2,1.4c0.4,0.5,0.6,1,0.8,1.5
			c0.2,0.7,0.1,1.5-0.1,2.2c-0.1,0.8-0.4,1.5-0.7,2.2c-0.5,1.2-1.2,2.2-1.9,3.2c-0.5,0.7-1.1,1.3-1.8,2c-0.6,0.6-1.2,1.1-1.9,1.5
			c-0.4,0.2-0.7,0.5-1,0.7c-0.5,0.3-0.9,0.5-1.5,0.7C44.7,35,45,36.7,45.9,38.3z M44.7,31.7c0.6-0.5,1.2-1.1,1.8-1.6
			c0.8-0.8,1.6-1.6,2.3-2.5c0.7-0.9,1.3-1.9,1.8-2.9c0.4-0.8,0.7-1.6,0.9-2.4c0.1-0.6,0.2-1.3,0.2-1.9c0-0.5-0.2-0.9-0.5-1.3
			c-0.2-0.4-0.6-0.7-1.1-0.7c-0.2,0-0.4-0.1-0.7-0.1c-1.1-0.1-2.1,0.1-3.1,0.4c-0.4,0.1-0.7,0.2-1,0.5c-0.1,0.5-0.1,0.9-0.2,1.4
			c-0.1,0.7-0.1,1.4-0.2,2.2c-0.1,0.5-0.1,1-0.2,1.5c0,0.6-0.1,1.2-0.1,1.8c-0.1,0.9-0.1,1.9-0.1,2.8c0,0.1,0,0.3,0,0.4
			c-0.1,0.8-0.1,1.7-0.1,2.6c0,0,0,0,0,0.1C44.6,31.7,44.7,31.7,44.7,31.7z"/>
		<path class="st0" d="M54.3,36.5c-0.4-0.2-0.8-0.5-1-0.9c-0.4-0.6-0.6-1.2-0.7-1.8c-0.2-0.7-0.2-1.5-0.2-2.2
			c0.1-0.9,0.2-1.8,0.5-2.7c0.1-0.3,0.2-0.5,0.3-0.8c0-0.1,0.1-0.2,0.2-0.3c0.1-0.2,0.3-0.3,0.5-0.2c0.4,0,0.8,0.1,1.1,0.4
			c0,0.1,0,0.2,0,0.4c-0.1,0.9-0.2,1.9-0.4,2.8c-0.1,0.7-0.1,1.4-0.2,2c0,0.5,0,1,0,1.5c0,0.4,0.1,0.8,0.2,1.2c0,0.2,0,0.5,0.1,0.7
			C54.6,36.6,54.5,36.6,54.3,36.5z M54.2,24.1C54.1,23.7,54,23.4,54,23c0-0.8,0.1-1.6,0.5-2.3c0-0.1,0.1-0.1,0.1-0.2
			c0.2-0.1,0.4,0,0.6,0c0.2,0.1,0.5,0.1,0.6,0.4c0,0,0,0.1,0,0.1c-0.3,0.4-0.4,0.8-0.5,1.2c-0.2,0.8-0.5,1.6-0.8,2.3
			c0,0,0,0.1-0.1,0.1C54.3,24.5,54.2,24.3,54.2,24.1z"/>
		<path class="st0" d="M62.4,27.2c0.4,0.1,0.7,0.4,0.8,0.8c0.1,0.3,0.2,0.6,0.2,0.9c0,0.8,0,1.6-0.1,2.4c-0.1,0.5-0.1,1.1-0.1,1.6
			c0,0.3-0.1,0.6-0.1,0.9c0,0.6,0,1.2,0.1,1.7c-0.1,0.1-0.1,0-0.2,0c-0.1-0.1-0.3-0.1-0.4-0.2c-0.1-0.1-0.2-0.2-0.3-0.3
			c-0.1-0.1-0.1-0.2-0.2-0.3c-0.2-0.2-0.2-0.5-0.3-0.8c-0.1-0.6-0.1-1.3-0.1-1.9c0.1-0.6,0.1-1.3,0.2-1.9c0-0.4,0.1-0.9,0.1-1.3
			c0-0.3,0.1-0.7,0-1c-0.1-0.1-0.2,0-0.2,0c-0.3,0.3-0.6,0.6-0.8,1c-0.4,0.6-0.7,1.2-0.9,1.9c-0.5,1.5-1,2.9-1.4,4.5
			c-0.2,0.8-0.4,1.6-0.5,2.4c-0.1,0.6-0.1,1.1-0.2,1.6c0,0.2-0.1,0.3-0.1,0.5c-0.1,0-0.2,0-0.3,0c-0.1,0-0.2,0-0.2-0.1
			c-0.4-0.1-0.7-0.3-0.8-0.7c0-0.1-0.1-0.2-0.1-0.3c-0.2-0.8-0.4-1.6-0.4-2.5c-0.1-1.1-0.1-2.1-0.1-3.2c0-0.8,0.1-1.7,0.2-2.5
			c0.1-0.7,0.2-1.3,0.4-2c0.2-0.8,0.4-1.6,0.7-2.4c0.1-0.2,0.1-0.4,0.4-0.5c0.4,0,0.8,0.1,1.1,0.5c-0.1,0.4-0.1,0.7-0.2,1.1
			c-0.1,0.9-0.2,1.9-0.4,2.8c0,0.3-0.1,0.6-0.1,0.8c-0.1,0.6-0.1,1.2-0.2,1.8c-0.1,1.1-0.1,2.2-0.1,3.3c0,0.1,0,0.2,0.1,0.3
			c0.1-0.2,0.1-0.5,0.2-0.7c0.4-1.2,0.8-2.4,1.2-3.6c0.2-0.8,0.5-1.5,0.8-2.3c0.2-0.7,0.6-1.4,1.1-2c0.2-0.3,0.5-0.6,0.9-0.7
			C62,27.1,62.2,27.1,62.4,27.2z"/>
		<path class="st0" d="M66.3,23.6c-0.6,0.1-1.2,0.1-1.8,0.1c-0.7,0-1.4,0-2,0c-0.8,0-1.5,0-2.3,0.1c-0.2,0-0.4,0-0.5,0
			c-0.1,0-0.1-0.1-0.1-0.1c0,0,0-0.1,0.1-0.1c0.2-0.1,0.4-0.2,0.6-0.2c0.7-0.1,1.4-0.1,2.1-0.2c0.7-0.1,1.4-0.1,2-0.2
			c0.1,0,0.2,0,0.3,0c0.7,0,1.4-0.1,2.1-0.1c0,0,0.1,0,0.2,0c0-0.1,0.1-0.2,0.1-0.2c0.3-1,0.6-2,0.9-3c-0.1-0.3,0.1-0.7,0.2-1
			c0.2-0.4,0.5-0.8,0.7-1.2c0.4,0,0.7,0.2,0.9,0.4c0.1,0.4,0,0.7,0,1c-0.2,0.8-0.4,1.7-0.6,2.5c-0.1,0.5-0.2,0.9-0.3,1.3
			c0.1,0.1,0.3,0.1,0.4,0.1c0.8,0,1.6,0,2.4,0c0.9,0,1.9,0.1,2.8,0.4c0.4,0.1,0.7,0.2,1.1,0.4c0.1,0,0.1,0.1,0.2,0.2
			c-0.6,0-1.2,0-1.7-0.1c-0.7,0-1.4-0.1-2.1-0.1c-1.1,0-2.1,0-3.2,0.1c0,0-0.1,0-0.2,0c0,0.1-0.1,0.2-0.1,0.4
			c-0.1,0.7-0.3,1.4-0.4,2c-0.1,0.5-0.2,1.1-0.2,1.6c-0.1,0.9-0.2,1.8-0.3,2.6c0,0.2,0,0.4,0,0.5c0,0.4,0,0.7-0.1,1.1
			c0,0.2,0,0.5,0,0.7c0,0.6,0,1.3-0.1,1.9c0,0.9,0.1,1.8,0.2,2.7c0,0.6,0.2,1.3,0.4,1.9c0.2,0.7,0.4,1.4,0.8,2
			c0.3,0.6,0.8,1,1.3,1.3c0.4,0.1,0.6,0,0.9-0.1c-0.1,0.1-0.2,0.2-0.3,0.3c-0.7,0.1-1.4-0.1-2-0.4c-0.6-0.3-1.1-0.7-1.5-1.2
			c-0.5-0.5-0.8-1.1-1.1-1.7c-0.5-1-0.7-2.1-0.8-3.3c-0.1-0.7-0.1-1.4-0.1-2.1c0-0.9,0.1-1.9,0.2-2.8c0-0.4,0.1-0.9,0.1-1.3
			c0.1-0.9,0.2-1.9,0.4-2.8c0.2-1.1,0.4-2.1,0.7-3.2c0-0.1,0-0.1,0-0.2C66.6,23.6,66.4,23.6,66.3,23.6z"/>
		<path class="st0" d="M73.3,34.5c-0.2,0.6-0.4,1.1-0.6,1.7c-0.1,0.2-0.2,0.4-0.2,0.5c-0.1,0.2-0.2,0.3-0.5,0.4
			c-0.4,0-0.7-0.1-1.1-0.2c-0.3-0.1-0.5-0.3-0.6-0.5c-0.1-0.2-0.2-0.4-0.2-0.6c-0.1-0.6-0.2-1.2-0.2-1.7c0-0.5,0-1.1,0-1.6
			c0-1.1,0.1-2.2,0.3-3.3c0.2-0.9,0.5-1.7,1-2.4c0.3-0.4,0.5-0.6,0.9-0.8c0.6,0,1.3,0.2,1.8,0.8c0.2-0.4,0.2-0.8,0.3-1.2
			c0.1-0.4,0.2-0.7,0.4-1.1c0.4-0.3,0.7-0.1,1.1,0c0.4,0.1,0.7,0.1,1,0.4c0,0.1,0,0.2-0.1,0.3c-0.2,0.5-0.2,1.1-0.3,1.5
			c-0.1,0.6-0.2,1.2-0.3,1.8c0,0.5-0.1,0.9-0.1,1.4c0,0.4-0.1,0.7-0.1,1.1c0,0.6,0,1.1-0.1,1.7c0,0.2,0,0.5,0,0.7
			c0,0.3,0,0.6,0.1,0.9c0,0.6,0.1,1.3,0.2,1.9c0.1,0.5,0.2,0.9,0.3,1.3c0,0.1,0,0.2,0.1,0.2c0,0.2,0,0.4,0.1,0.6
			c-0.1,0.1-0.1,0.1-0.2,0c-0.9-0.4-1.5-1.1-2-1.9c-0.4-0.8-0.6-1.5-0.8-2.4C73.3,34.3,73.3,34.4,73.3,34.5z M71.5,35.6
			c0.1-0.4,0.3-0.8,0.5-1.3c0.4-1.4,0.8-2.9,1.3-4.3c0.1-0.4,0.2-0.8,0.2-1.3c0-0.1,0-0.2,0-0.3c-0.1-0.6-0.2-1.1-0.5-1.6
			c-0.1-0.1-0.1-0.2-0.2-0.3c-0.1,0.1-0.2,0.2-0.2,0.3c-0.3,0.5-0.5,0.9-0.7,1.4c-0.2,0.7-0.4,1.3-0.4,2c-0.1,0.8-0.1,1.6-0.1,2.5
			c0,0.3,0,0.6,0,0.9c0,0.6,0,1.2,0.1,1.8C71.3,35.5,71.3,35.5,71.5,35.6C71.4,35.6,71.4,35.6,71.5,35.6z"/>
		<path class="st0" d="M81.9,37.3c-0.3,0.4-0.6,0.7-1,0.9c-0.5,0.2-1.1,0.3-1.6,0.1c-0.2-0.1-0.5-0.2-0.8-0.3
			c-0.4-0.2-0.6-0.4-0.6-0.8c0.1,0,0.1,0,0.2,0c0.1,0.2,0.3,0.3,0.5,0.5c0,0,0.1,0,0.1,0c0.2,0,0.5-0.1,0.7-0.3
			c0.4-0.4,0.7-0.9,0.9-1.4c0.1-0.2,0.1-0.4,0.1-0.6c0.1-0.6,0-1.2-0.4-1.7c-0.2-0.3-0.5-0.6-0.7-0.9c-0.3-0.4-0.6-0.7-0.7-1.2
			c-0.2-0.5-0.3-1.1-0.1-1.7c0.1-0.2,0.2-0.5,0.2-0.7c0.1-0.4,0.4-0.7,0.7-1c0.4-0.5,0.7-0.9,1.2-1.3c0.4-0.3,0.8-0.6,1.3-0.7
			c0.3,0,0.6,0.1,0.9,0.3c0,0.1,0,0.2-0.1,0.3c-0.1,0.2-0.3,0.4-0.5,0.5c-0.6,0.7-1,1.4-1.3,2.2c-0.4,0.8-0.5,1.6-0.3,2.5
			c0.1,0.3,0.2,0.6,0.4,0.8c0.3,0.4,0.6,0.8,0.9,1.2c0.5,0.6,0.6,1.2,0.6,1.9c0,0.1,0,0.2,0,0.4C82.3,36.7,82.1,37,81.9,37.3z"/>
		<path class="st0" d="M108.1,38.2c-0.6-0.5-1.1-1.1-1.3-1.8c-0.2-0.6-0.4-1.3-0.5-1.9c-0.1-0.8-0.1-1.6-0.1-2.4
			c0-0.5,0.1-0.9,0.1-1.4c0-0.4,0.1-0.8,0.1-1.3c0-0.8,0.2-1.6,0.4-2.4c0.2-1.2,0.5-2.4,0.8-3.6c0.2-0.9,0.4-1.8,0.6-2.6
			c0-0.1,0-0.2,0-0.4c-0.2,0.1-0.4,0.4-0.6,0.5c-1.2,1.4-2.1,3.1-2.7,4.8c-0.5,1.4-0.9,2.8-1.2,4.2c-0.2,0.9-0.4,1.9-0.6,2.8
			c-0.1,0.3-0.2,0.6-0.4,0.9c-0.1,0.3-0.2,0.5-0.6,0.6c-0.2,0-0.4-0.1-0.6-0.1c-0.4-0.2-0.5-0.6-0.6-1c-0.1-0.6,0-1.2,0-1.8
			c0-0.1,0-0.3,0.1-0.5c0-0.8,0.1-1.6,0.3-2.4c0.1-0.6,0.2-1.2,0.2-1.7c0.1-0.6,0.2-1.1,0.3-1.7c0.1-0.6,0.2-1.2,0.1-1.8
			c0-0.1,0-0.2,0-0.4c0,0-0.1-0.1-0.1-0.1c-0.2,0-0.3,0.1-0.4,0.2c-0.5,0.4-0.8,0.9-1.2,1.4c-1.1,1.7-2.1,3.4-2.8,5.3
			c-0.2,0.5-0.4,1.1-0.6,1.6c-0.5,1.4-0.8,2.8-1.1,4.4c-0.1,0.6-0.1,1.2-0.2,1.8c0,0.5-0.1,0.9-0.2,1.4c0,0.1,0,0.1-0.1,0.2
			c-0.1,0.1-0.1,0.1-0.2,0.1c-0.6,0-1.1-0.1-1.6-0.5c-0.4-0.5-0.6-1.1-0.7-1.8c-0.1-0.5-0.2-1-0.2-1.5c0-0.7-0.1-1.4-0.1-2.1
			c0-0.5,0-0.9,0-1.4c0-0.9,0.1-1.9,0.2-2.8c0.1-1,0.4-2,0.6-2.9c0.2-0.9,0.4-1.8,0.6-2.7c0.1-0.6,0.3-1.3,0.5-1.9
			c0.2-0.7,0.3-1.4,0.5-2c0-0.2,0.1-0.4,0.1-0.5c0.5-0.1,0.8,0.1,1.1,0.3c0.2,0.5,0.2,1,0.2,1.5c0,0.5-0.1,1.1-0.2,1.6
			c-0.1,0.8-0.2,1.6-0.4,2.4c-0.1,0.8-0.3,1.6-0.4,2.4c-0.2,1.2-0.4,2.4-0.5,3.6c0,0.1,0,0.1,0,0.2c-0.1,1.3-0.2,2.7-0.1,4
			c0,0.3,0,0.6,0,0.9c0.2-0.1,0.2-0.2,0.2-0.4c0.2-1,0.5-2,0.8-3.1c0.4-1.1,0.8-2.2,1.3-3.2c0.3-0.7,0.7-1.4,1-2.1
			c0.6-1.2,1.3-2.3,2.1-3.3c0.4-0.5,0.8-0.9,1.3-1.2c0,0,0.1,0,0.1,0c0.2,0,0.4,0,0.6,0.1c0.2,0.1,0.3,0.2,0.4,0.4
			c0,0.2,0.1,0.3,0.1,0.5c0,0.5,0,1-0.1,1.5c-0.1,0.6-0.2,1.3-0.2,1.9c-0.1,0.6-0.2,1.3-0.3,1.9c-0.1,0.4-0.1,0.8-0.1,1.2
			c-0.1,0.6-0.1,1.2-0.2,1.8c0,0.5,0,1,0,1.5c0,0.1,0.1,0.3,0.1,0.4c0.1,0.1,0.2,0,0.2-0.1c0.1-0.2,0.2-0.5,0.4-0.8
			c0.2-0.7,0.4-1.4,0.6-2.1c0.2-0.9,0.4-1.8,0.6-2.7c0.6-2.4,1.6-4.6,3-6.7c0.4-0.6,0.8-1.1,1.3-1.6c0.1-0.1,0.2-0.2,0.5-0.3
			c0.1,0,0.4,0.1,0.5,0.1c0.2,0.1,0.4,0.3,0.4,0.6c0.1,0.5,0.1,1,0,1.5c0,0.1,0,0.2,0,0.3c-0.1,0.9-0.1,1.8-0.2,2.7
			c-0.1,0.7-0.1,1.4-0.2,2.1c0,0.5-0.1,0.9-0.1,1.3c0,0,0,0.1,0,0.1c-0.1,0.7-0.1,1.3-0.1,2c0,0.6-0.1,1.2-0.1,1.8c0,1,0.1,2,0.1,3
			c0,0.5,0.2,1,0.2,1.5c0.1,0.7,0.2,1.4,0.1,2.1C108.6,38.6,108.3,38.5,108.1,38.2z"/>
		<path class="st0" d="M114.3,35.6c-0.2-0.6-0.3-1.2-0.4-1.8c0-0.3-0.1-0.6-0.1-0.9c-0.1,0.3-0.3,0.6-0.4,0.9
			c-0.1,0.3-0.3,0.6-0.5,0.8c-0.1,0.2-0.4,0.4-0.6,0.6c-0.6,0.1-1.1-0.1-1.5-0.5c-0.3-0.2-0.5-0.5-0.5-0.9c-0.1-0.3-0.1-0.6-0.1-0.9
			c0-1.2,0.1-2.3,0.5-3.4c0.1-0.6,0.4-1.2,0.6-1.8c0-0.1,0.1-0.1,0.1-0.2c0.1,0,0.2,0,0.4,0c0.2,0.1,0.3,0.1,0.6,0.4
			c0,0.3,0,0.6,0,0.9c-0.1,0.8-0.3,1.6-0.5,2.4c0,0.3-0.1,0.6-0.1,0.9c-0.1,0.5-0.1,1-0.1,1.4c0,0.4,0,0.7,0.1,1.1
			c0.1,0.1,0.2,0,0.2,0c0.4-0.2,0.6-0.5,0.8-0.8c0.4-0.6,0.7-1.2,1-1.9c0-0.1,0.1-0.1,0.1-0.2c0.2-0.5,0.4-0.9,0.5-1.5
			c0.2-1.1,0.5-2.2,1-3.2c0-0.1,0.1-0.2,0.2-0.3c0-0.1,0.1-0.1,0.2-0.2c0.4,0.1,0.8,0.2,1.1,0.5c0.1,0.2,0.1,0.4,0.1,0.6
			c-0.1,0.6-0.1,1.2-0.2,1.8c-0.1,0.8-0.2,1.6-0.2,2.5c0,0.5-0.1,1.1-0.1,1.6c0,0.4,0,0.8-0.1,1.2c0,0.6,0.1,1.1,0.1,1.7
			c0,0.2,0.1,0.5,0.1,0.7c0,0.2,0.1,0.5,0.1,0.7C115.3,37.3,114.6,36.6,114.3,35.6z"/>
		<path class="st0" d="M122.3,28.2c-0.1,0-0.2-0.1-0.2-0.1c-0.3-0.3-0.5-0.7-0.8-0.9c-0.4,0.4-0.6,0.8-0.8,1.3
			c-0.2,0.5-0.3,1.1-0.4,1.7c-0.1,0.6-0.1,1.2-0.1,1.8c-0.1,0.8,0.1,1.6,0.3,2.5c0.1,0.4,0.3,0.7,0.5,1.1c0.1,0.2,0.3,0.3,0.5,0.4
			c0.5,0,0.9-0.2,1.3-0.4c0.4-0.2,0.8-0.4,1.2-0.6c0,0.1,0,0.1,0,0.1c-0.1,0.5-0.4,0.8-0.8,1.1c-0.3,0.2-0.7,0.3-1.1,0.3
			c-0.7,0-1.4-0.2-2.1-0.6c-0.6-0.3-1.1-0.8-1.3-1.4c-0.2-0.6-0.4-1.2-0.4-1.8c0-1.4,0.1-2.8,0.6-4.1c0.2-0.6,0.6-1.2,1-1.7
			c0.5-0.5,1-0.7,1.7-0.5c0.2,0.1,0.4,0.1,0.6,0.2c0.2,0.1,0.4,0.3,0.5,0.6c0.1,0.3,0.2,0.6,0.2,0.9
			C122.4,28.1,122.4,28.1,122.3,28.2z"/>
		<path class="st0" d="M127.3,37c-0.3-0.1-0.6-0.2-0.9-0.3c-0.4-0.1-0.7-0.4-0.9-0.8c-0.2-0.4-0.3-0.7-0.4-1.1
			c-0.1-0.5-0.2-1-0.2-1.5c0-0.5,0-0.9,0-1.3c0-0.5,0-0.9,0-1.4c0-0.5,0.1-0.9,0.1-1.3c0.1-0.4,0.1-0.8,0.2-1.3
			c0-0.2,0.1-0.5,0.1-0.7c0.1-0.5,0.2-0.9,0.2-1.4c0.1-0.4,0.2-0.7,0.2-1.1c0.1-0.3,0.1-0.7,0.2-1c0.1-0.4,0.2-0.9,0.4-1.3
			c0.2-0.7,0.4-1.4,0.6-2.1c0.1-0.4,0.3-0.8,0.5-1.2c0.5-1.3,1-2.5,1.6-3.6c0.1-0.3,0.3-0.5,0.5-0.8c0.5-0.1,0.9,0.2,1.3,0.4
			c0.1,0.2,0.1,0.4,0.1,0.5c-0.1,0.6-0.3,1.2-0.5,1.8c-0.3,1.1-0.6,2.1-0.8,3.2c-0.2,1-0.4,2-0.6,3c-0.1,0.6-0.2,1.1-0.2,1.7
			c0,0.2-0.1,0.5-0.1,0.7c-0.1,0.5-0.2,1.1-0.2,1.6c-0.1,0.6-0.2,1.1-0.2,1.6c-0.1,0.8-0.2,1.5-0.2,2.3c0,0.2-0.1,0.4-0.1,0.6
			c0,0.3-0.1,0.5,0,0.8c0.1,0,0.1-0.1,0.2-0.1c0.3-0.7,0.6-1.3,0.9-2c0.2-0.4,0.4-0.9,0.7-1.3c0.2-0.4,0.5-0.8,0.8-1.1
			c0.1-0.1,0.2-0.2,0.3-0.2c0.2-0.1,0.4-0.1,0.7-0.1c0.2,0.1,0.4,0.1,0.6,0.3c0.2,0.2,0.2,0.5,0.3,0.8c0.1,0.8,0.1,1.6,0.1,2.5
			c0,1-0.1,1.9-0.1,2.9c-0.1,0.9,0,1.8,0.3,2.6c-0.1,0.1-0.2,0-0.4,0c-0.6-0.2-1.1-0.6-1.3-1.2c-0.2-0.6-0.4-1.1-0.4-1.8
			c0-0.7,0-1.4,0-2c0-0.7,0.1-1.4,0.2-2.1c0-0.3,0.1-0.6,0.1-0.9c0,0,0-0.1-0.1-0.2c-0.1,0.1-0.2,0.1-0.2,0.2
			c-0.4,0.5-0.6,1.1-0.9,1.6c-0.5,1.2-0.9,2.4-1.3,3.5c-0.3,0.8-0.5,1.6-0.6,2.5C127.8,37,127.5,37,127.3,37z"/>
		<path class="st0" d="M137,36.9c-0.4-0.1-0.7-0.2-1-0.4c-0.6-0.4-1-0.9-1.3-1.5c-0.2-0.6-0.3-1.1-0.3-1.7c0-1.1,0.1-2.1,0.3-3.2
			c0.2-1.1,0.5-2.1,1-3c0.2-0.4,0.4-0.7,0.7-1c0.2-0.1,0.5-0.1,0.8,0c0.2,0.1,0.4,0.1,0.5,0.2c0.3,0.2,0.6,0.2,0.9,0.4
			c0.2,0.1,0.5,0.1,0.7,0.3c0.2,0.1,0.4,0.4,0.5,0.6c0.1,0.3,0.1,0.6,0.1,0.9c-0.1,0.8-0.2,1.5-0.3,2.3c-0.1,0.9-0.4,1.8-0.5,2.7
			c-0.1,0.4-0.2,0.7-0.3,1.1c-0.1,0.6-0.4,1.1-0.6,1.7c-0.1,0.2-0.2,0.5-0.4,0.7C137.6,36.9,137.3,36.9,137,36.9z M137.3,29.5
			c-0.2,0.8-0.5,1.6-0.6,2.5c-0.1,0.6-0.2,1.3-0.2,1.9c0,0.3-0.1,0.6,0,0.9c0,0.5,0.1,0.9,0.3,1.4c0,0.1,0.1,0.1,0.2,0.2
			c0.1-0.1,0.2-0.2,0.3-0.3c0.1-0.1,0.1-0.2,0.2-0.4c0.2-0.4,0.5-0.9,0.6-1.4c0.4-1.3,0.8-2.7,1-4.1c0.1-0.7,0.2-1.5,0.2-2.3
			c0-0.2-0.1-0.5-0.1-0.7c-0.1-0.2-0.2-0.4-0.4-0.5c-0.1,0-0.2,0-0.4,0C137.9,27.6,137.6,28.6,137.3,29.5z"/>
		<path class="st0" d="M153.1,34.5c-0.2,0.6-0.4,1.1-0.6,1.7c-0.1,0.2-0.2,0.4-0.2,0.5c-0.1,0.2-0.2,0.3-0.5,0.4
			c-0.4,0-0.7-0.1-1.1-0.2c-0.3-0.1-0.5-0.3-0.6-0.5c-0.1-0.2-0.2-0.4-0.2-0.6c-0.1-0.6-0.2-1.2-0.2-1.7c0-0.5,0-1.1,0-1.6
			c0-1.1,0.1-2.2,0.3-3.3c0.2-0.9,0.5-1.7,1-2.4c0.3-0.4,0.5-0.6,0.9-0.8c0.6,0,1.3,0.2,1.8,0.8c0.2-0.4,0.2-0.8,0.3-1.2
			c0.1-0.4,0.2-0.7,0.4-1.1c0.4-0.3,0.7-0.1,1.1,0c0.4,0.1,0.7,0.1,1,0.4c0,0.1,0,0.2-0.1,0.3c-0.2,0.5-0.2,1.1-0.3,1.5
			c-0.1,0.6-0.2,1.2-0.3,1.8c0,0.5-0.1,0.9-0.1,1.4c0,0.4-0.1,0.7-0.1,1.1c0,0.6,0,1.1-0.1,1.7c0,0.2,0,0.5,0,0.7
			c0,0.3,0,0.6,0.1,0.9c0,0.6,0.1,1.3,0.2,1.9c0.1,0.5,0.2,0.9,0.3,1.3c0,0.1,0,0.2,0.1,0.2c0,0.2,0,0.4,0.1,0.6
			c-0.1,0.1-0.1,0.1-0.2,0c-0.9-0.4-1.5-1.1-2-1.9c-0.4-0.8-0.6-1.5-0.8-2.4C153.2,34.3,153.2,34.4,153.1,34.5z M151.3,35.6
			c0.1-0.4,0.3-0.8,0.5-1.3c0.4-1.4,0.8-2.9,1.3-4.3c0.1-0.4,0.2-0.8,0.2-1.3c0-0.1,0-0.2,0-0.3c-0.1-0.6-0.2-1.1-0.5-1.6
			c-0.1-0.1-0.1-0.2-0.2-0.3c-0.1,0.1-0.2,0.2-0.2,0.3c-0.3,0.5-0.5,0.9-0.7,1.4c-0.2,0.7-0.4,1.3-0.4,2c-0.1,0.8-0.1,1.6-0.1,2.5
			c0,0.3,0,0.6,0,0.9c0,0.6,0,1.2,0.1,1.8C151.2,35.5,151.2,35.5,151.3,35.6C151.3,35.6,151.3,35.6,151.3,35.6z"/>
		<path class="st0" d="M162.8,44.5c-0.4-0.4-0.6-0.9-0.8-1.4c-0.2-0.6-0.3-1.3-0.5-1.9c-0.1-0.3-0.1-0.6-0.1-0.9
			c-0.1-1.2-0.2-2.4-0.1-3.5c0-0.5,0-0.9,0-1.4c0-0.2,0-0.5,0.1-0.7c0-0.1,0-0.2,0-0.3c-0.1,0.1-0.1,0.1-0.2,0.1
			c-0.1,0.2-0.2,0.4-0.4,0.5c-0.2,0.2-0.4,0.4-0.7,0.6c-0.8,0.1-1.4-0.2-2-0.7c-0.3-0.2-0.4-0.6-0.4-0.9c0-0.4,0-0.8,0-1.2
			c0.2-1.3,0.7-2.5,1.3-3.6c0.3-0.5,0.7-0.9,1.2-1.3c0.6-0.4,1.2-0.5,1.9-0.2c0.1,0,0.2,0.1,0.4,0.1c0.3-0.5,0.4-1,0.7-1.4
			c0.3-0.1,0.6,0,0.9,0.1c0.4,0.1,0.7,0.3,0.9,0.6c-0.1,0.4-0.1,0.8-0.2,1.2c-0.1,0.8-0.2,1.6-0.4,2.4c0,0.4-0.1,0.7-0.1,1.1
			c0,0,0,0.1,0,0.1c0.1,0.3,0,0.6,0,0.9c0,0.3,0,0.6-0.1,0.9c0,0.5,0,1,0,1.5c0,0.1,0,0.1,0,0.2c0,0.3,0,0.7,0,1c0,0.4,0,0.7,0,1
			c0,0.5,0,1-0.1,1.5c0,1,0,2,0,3c0,0.7,0.1,1.4,0.1,2.1c0,0.4,0,0.7-0.1,1.1C163.6,45.2,163.2,44.8,162.8,44.5z M159.8,34.5
			c0.6-0.7,1.1-1.5,1.5-2.4c0.2-0.5,0.5-1,0.6-1.6c0.1-0.4,0.1-0.7,0.2-1.1c0.1-0.4,0.1-0.7,0-1c0-0.1,0-0.1-0.1-0.2
			c-0.1,0-0.2,0.1-0.2,0.1c-0.5,0.4-0.8,0.8-1.1,1.3c-0.2,0.4-0.4,0.8-0.6,1.2c-0.4,0.7-0.6,1.5-0.8,2.2c-0.1,0.5-0.2,1-0.1,1.5
			c0,0.1,0,0.2,0,0.3C159.5,34.8,159.7,34.6,159.8,34.5z"/>
		<path class="st0" d="M171.1,35.6c-0.2-0.6-0.3-1.2-0.4-1.8c0-0.3-0.1-0.6-0.1-0.9c-0.1,0.3-0.3,0.6-0.4,0.9
			c-0.1,0.3-0.3,0.6-0.5,0.8c-0.1,0.2-0.4,0.4-0.6,0.6c-0.6,0.1-1.1-0.1-1.5-0.5c-0.3-0.2-0.5-0.5-0.5-0.9c-0.1-0.3-0.1-0.6-0.1-0.9
			c0-1.2,0.1-2.3,0.5-3.4c0.1-0.6,0.4-1.2,0.6-1.8c0-0.1,0.1-0.1,0.1-0.2c0.1,0,0.2,0,0.4,0c0.2,0.1,0.3,0.1,0.6,0.4
			c0,0.3,0,0.6,0,0.9c-0.1,0.8-0.3,1.6-0.5,2.4c0,0.3-0.1,0.6-0.1,0.9c-0.1,0.5-0.1,1-0.1,1.4c0,0.4,0,0.7,0.1,1.1
			c0.1,0.1,0.2,0,0.2,0c0.4-0.2,0.6-0.5,0.8-0.8c0.4-0.6,0.7-1.2,1-1.9c0-0.1,0.1-0.1,0.1-0.2c0.2-0.5,0.4-0.9,0.5-1.5
			c0.2-1.1,0.5-2.2,1-3.2c0-0.1,0.1-0.2,0.2-0.3c0-0.1,0.1-0.1,0.2-0.2c0.4,0.1,0.8,0.2,1.1,0.5c0.1,0.2,0.1,0.4,0.1,0.6
			c-0.1,0.6-0.1,1.2-0.2,1.8c-0.1,0.8-0.2,1.6-0.2,2.5c0,0.5-0.1,1.1-0.1,1.6c0,0.4,0,0.8-0.1,1.2c0,0.6,0.1,1.1,0.1,1.7
			c0,0.2,0.1,0.5,0.1,0.7c0,0.2,0.1,0.5,0.1,0.7C172.1,37.3,171.5,36.6,171.1,35.6z"/>
		<path class="st0" d="M178.4,23.4c0,0.4-0.2,0.6-0.4,0.8c-0.6,0.6-1.2,1.1-1.8,1.6c-0.4,0.3-0.7,0.5-1.2,0.5
			c-0.1,0-0.1-0.1-0.1-0.2c0.1-0.5,0.2-0.9,0.5-1.3c0.4-0.5,0.8-1.1,1.3-1.5c0.2-0.2,0.4-0.4,0.6-0.6c0.1-0.1,0.2-0.1,0.4-0.2
			C178.1,22.8,178.3,23.1,178.4,23.4z M176.9,36.5c-0.4-0.2-0.8-0.5-1-0.9c-0.4-0.6-0.6-1.2-0.7-1.8c-0.2-0.7-0.2-1.5-0.2-2.2
			c0.1-0.9,0.2-1.8,0.5-2.7c0.1-0.3,0.2-0.5,0.3-0.8c0-0.1,0.1-0.2,0.2-0.3c0.1-0.2,0.3-0.3,0.5-0.2c0.4,0,0.8,0.1,1.1,0.4
			c0,0.1,0,0.2,0,0.4c-0.1,0.9-0.2,1.9-0.4,2.8c-0.1,0.7-0.1,1.4-0.2,2c0,0.5,0,1,0,1.5c0,0.4,0.1,0.8,0.2,1.2c0,0.2,0,0.5,0.1,0.7
			C177.2,36.6,177,36.6,176.9,36.5z"/>
	</g>
</g>
</svg>
